<?xml version="1.0" encoding="utf-8"?>
<!-- Generator: Adobe Illustrator 18.1.1, SVG Export Plug-In . SVG Version: 6.00 Build 0)  -->
<svg version="1.1" id="imgView" xmlns="http://www.w3.org/2000/svg" xmlns:xlink="http://www.w3.org/1999/xlink" x="0px" y="0px"
	 viewBox="200 2.8 560 554.3" enable-background="new 200 2.8 560 554.3" xml:space="preserve">
<g>
	<path fill="#FFFFFF" d="M236.8,205.2c2.9,10.1,7,19.8,12.2,29l-14.7,18.6c-4.8,6.1-4.3,14.7,1.1,20.2l25.4,25.4
		c5.5,5.5,14.1,5.9,20.2,1.1l18.4-14.6c9.5,5.5,19.6,9.7,30.1,12.7l2.8,23.7c0.9,7.7,7.4,13.5,15.1,13.5h35.9
		c7.7,0,14.2-5.8,15.1-13.5l2.6-22.9c11.3-2.9,22.1-7.3,32.3-13l17.8,14.1c6.1,4.8,14.7,4.3,20.2-1.1l25.4-25.4
		c5.5-5.5,5.9-14.1,1.1-20.2l-13.9-17.6c5.8-10,10.3-20.6,13.3-31.7l21.4-2.5c7.7-0.9,13.5-7.4,13.5-15.1V150
		c0-7.7-5.8-14.2-13.5-15.1l-21.1-2.5c-2.9-11-7.2-21.5-12.7-31.4l13-16.4c4.8-6.1,4.3-14.7-1.1-20.2l-25.3-25.3
		c-5.5-5.5-14.1-5.9-20.2-1.1l-15.9,12.6c-10.3-6.1-21.4-10.7-33-13.8l-2.4-20.6c-0.9-7.7-7.4-13.5-15.1-13.5h-35.9
		c-7.7,0-14.2,5.8-15.1,13.5l-2.4,20.6c-11.9,3.2-23.2,8-33.8,14.3l-16.5-13.1c-6.1-4.8-14.7-4.3-20.2,1.1l-25.4,25.4
		c-5.5,5.5-5.9,14.1-1.1,20.2l13.8,17.5c-5.5,10-9.7,20.6-12.5,31.7l-22.1,2.5c-7.7,0.9-13.5,7.4-13.5,15.1v35.9
		c0,7.7,5.8,14.2,13.5,15.1L236.8,205.2z M366.7,108.2c32.7,0,59.3,26.6,59.3,59.3s-26.6,59.3-59.3,59.3
		c-32.7,0-59.3-26.6-59.3-59.3S334,108.2,366.7,108.2z"/>
	<path fill="#FFFFFF" d="M721.3,214l-18.9-16c-5.8-4.9-14.4-4.7-19.9,0.5l-10.5,9.8c-8.8-4.3-18.2-7.3-27.9-9l-2.9-14.4
		c-1.5-7.4-8.4-12.6-16-12l-24.7,2.1c-7.6,0.7-13.5,6.8-13.8,14.5l-0.5,14.7c-9.5,3.4-18.4,8.1-26.6,14l-12.5-8.3
		c-6.4-4.2-14.8-3-19.8,2.8l-16,19c-4.9,5.8-4.7,14.4,0.5,19.9l10.9,11.7c-3.8,8.5-6.5,17.5-8,26.7l-15.6,3.2
		c-7.4,1.5-12.6,8.4-12,16l2.1,24.7c0.7,7.6,6.8,13.5,14.5,13.8l16.9,0.5c3.1,8,7.1,15.7,12,22.8l-9.4,14.2
		c-4.2,6.4-3,14.8,2.8,19.8l18.9,16c5.8,4.9,14.4,4.7,19.9-0.5l12.4-11.6c8.1,3.8,16.6,6.6,25.4,8.3l3.4,16.9
		c1.5,7.4,8.4,12.6,16,12l24.7-2.1c7.6-0.7,13.5-6.8,13.8-14.5l0.5-16.6c9-3.2,17.5-7.5,25.4-12.9l13.6,9c6.4,4.2,14.8,3,19.8-2.8
		l16-18.9c4.9-5.8,4.7-14.4-0.5-19.9l-11-11.7c4-8.5,7-17.5,8.7-26.8l15-3.1c7.4-1.5,12.6-8.4,12-16l-2.1-24.7
		c-0.7-7.6-6.8-13.5-14.5-13.8l-15.1-0.5c-3.1-8.8-7.3-17.1-12.6-24.8l8.2-12.4C728.3,227.5,727.1,218.9,721.3,214z M628.2,356.7
		c-26.7,2.3-50.2-17.6-52.4-44.3c-2.3-26.7,17.6-50.2,44.3-52.4c26.7-2.3,50.2,17.6,52.4,44.3C674.8,331,654.9,354.5,628.2,356.7z"
		/>
	<path fill="#FFFFFF" d="M323.2,423.2c-7.6,0.8-13.4,7.1-13.5,14.8l-0.2,15.2c-0.1,7.6,5.5,14.1,13.1,15.1l11.2,1.4
		c1.9,6.8,4.5,13.3,7.9,19.4l-7.2,8.9c-4.8,5.9-4.4,14.5,0.9,19.9l10.6,10.9c5.3,5.5,13.9,6.1,19.9,1.4l9-6.9
		c6.3,3.7,13,6.7,19.9,8.7l1.2,11.5c0.8,7.6,7.1,13.4,14.8,13.5l15.2,0.2c7.6,0.1,14.1-5.5,15.1-13.1l1.4-10.9
		c7.6-1.9,14.8-4.7,21.6-8.4l8.4,6.8c5.9,4.8,14.5,4.4,19.9-0.9l10.9-10.6c5.5-5.3,6.1-13.9,1.4-19.9l-6.4-8.4c4-6.6,7-13.6,9.1-21
		l10-1c7.6-0.8,13.4-7.1,13.5-14.8l0.2-15.2c0.1-7.6-5.5-14.1-13.1-15.1l-9.7-1.3c-1.9-7.3-4.6-14.4-8.2-21l6.1-7.4
		c4.8-5.9,4.4-14.5-0.9-19.9L494.5,364c-5.3-5.5-13.9-6.1-19.9-1.4l-7.3,5.6c-6.8-4.1-14.2-7.3-21.9-9.5l-1-9.4
		c-0.8-7.6-7.1-13.4-14.8-13.5l-15.2-0.2c-7.6-0.1-14.1,5.5-15.1,13.1l-1.2,9.4c-7.9,2-15.6,5.2-22.6,9.3l-7.5-6.1
		c-5.9-4.8-14.5-4.4-19.9,0.9l-10.9,10.7c-5.5,5.3-6.1,13.9-1.4,19.9l6.4,8.3c-3.7,6.6-6.7,13.6-8.6,21L323.2,423.2z M421.3,406
		c21.8,0.2,39.3,18.2,39,40c-0.2,21.8-18.2,39.3-40,39c-21.8-0.2-39.3-18.2-39-40C381.5,423.2,399.4,405.8,421.3,406z"/>
</g>
</svg>
