<?xml version="1.0" encoding="utf-8"?>
<!-- Generator: Adobe Illustrator 17.1.0, SVG Export Plug-In . SVG Version: 6.00 Build 0)  -->
<!DOCTYPE svg PUBLIC "-//W3C//DTD SVG 1.1//EN" "http://www.w3.org/Graphics/SVG/1.1/DTD/svg11.dtd">
<svg version="1.1" id="Layer_1" xmlns="http://www.w3.org/2000/svg" xmlns:xlink="http://www.w3.org/1999/xlink" x="0px" y="0px"
	 viewBox="0 0 64 64" enable-background="new 0 0 64 64" xml:space="preserve">
<g>
	<path d="M34.7,3.2c-0.4-0.4-1-0.4-1.4-0.2c-0.6,0.2-0.8,0.8-0.8,1.2v16.4H2.8c-0.8,0-1.4,0.6-1.4,1.4v20.1c0,0.8,0.6,1.4,1.4,1.4
		h29.6v16.4c0,0.6,0.2,1,0.8,1.2c0.6,0.2,1.2,0,1.4-0.2l28.6-28c0.2-0.2,0.4-0.6,0.4-1c0-0.4-0.2-0.6-0.4-1L34.7,3.2z"/>
</g>
</svg>
