<?xml version="1.0" encoding="utf-8"?>
<!-- Generator: Adobe Illustrator 17.1.0, SVG Export Plug-In . SVG Version: 6.00 Build 0)  -->
<!DOCTYPE svg PUBLIC "-//W3C//DTD SVG 1.1//EN" "http://www.w3.org/Graphics/SVG/1.1/DTD/svg11.dtd">
<svg version="1.1" id="Layer_1" xmlns="http://www.w3.org/2000/svg" xmlns:xlink="http://www.w3.org/1999/xlink" x="0px" y="0px"
	 viewBox="0 0 64 64" enable-background="new 0 0 64 64" xml:space="preserve">
<g>
	<path d="M56.9,47c-0.2,0.4-0.5,0.6-1,0.6H8c-0.5,0-0.8-0.2-1-0.6c-0.2-0.5-0.1-0.8,0.2-1.2l9.1-9V22.6c0-4.3,1.5-8,4.6-11.1
		C24,8.5,27.7,7,32,7c4.3,0,8,1.5,11.1,4.6c3,3,4.6,6.7,4.6,11.1v14.2l9.1,9C57,46.1,57.1,46.5,56.9,47z M26.8,51.8h10.4
		c0,1.5-0.5,2.7-1.5,3.7c-1,1-2.2,1.5-3.7,1.5c-1.5,0-2.7-0.5-3.7-1.5C27.3,54.5,26.8,53.3,26.8,51.8z"/>
</g>
</svg>
