<?xml version="1.0" encoding="UTF-8" standalone="no"?>
<svg
   xmlns:dc="http://purl.org/dc/elements/1.1/"
   xmlns:cc="http://creativecommons.org/ns#"
   xmlns:rdf="http://www.w3.org/1999/02/22-rdf-syntax-ns#"
   xmlns:svg="http://www.w3.org/2000/svg"
   xmlns="http://www.w3.org/2000/svg"
   version="1.1"
   id="svg30388"
   viewBox="0 0 92.834851 84.87788"
   height="23.954424mm"
   width="26.200058mm">
  <defs
     id="defs30390" />
  <metadata
     id="metadata30393">
    <rdf:RDF>
      <cc:Work
         rdf:about="">
        <dc:format>image/svg+xml</dc:format>
        <dc:type
           rdf:resource="http://purl.org/dc/dcmitype/StillImage" />
        <dc:title></dc:title>
      </cc:Work>
    </rdf:RDF>
  </metadata>
  <g
     style="display:inline"
     id="layer4">
    <path
       id="path30712"
       d="M 8.3825328,23.603043 C 2.9804088,19.065957 -0.04873832,11.810477 0.42718562,4.548219 0.57576012,2.2810787 0.32981484,2.5097507 3.0974232,2.0655173 6.6533748,1.4947456 10.499472,1.8098382 13.905538,2.9509752 c 3.95695,1.3257 6.223167,2.8654312 10.891499,7.3999868 1.986304,1.929386 4.442416,4.217615 5.458024,5.084953 1.576864,1.346657 1.81148,1.624157 1.606376,1.9 -0.493302,0.663443 -2.659152,2.823022 -2.831216,2.823022 -0.274756,0 -4.482684,-3.769165 -7.8284,-7.012126 C 19.549402,11.545143 17.624772,9.8473954 16.924864,9.3740396 14.00498,7.399288 10.595284,6.3589366 7.043023,6.3589366 l -2.2031102,0 0.132706,1.5912602 c 0.2372958,2.8453802 1.4938828,6.3155982 3.189698,8.8087402 0.336695,0.495 1.1365278,1.449408 1.777406,2.120908 l 1.1652332,1.220909 -0.575269,2.233927 c -0.316398,1.22866 -0.6186354,2.277294 -0.6716382,2.330298 -0.053003,0.053 -0.7169852,-0.424868 -1.475516,-1.061936 z"
       style="fill:#fef087;fill-opacity:1;stroke:none" />
    <path
       id="path30714"
       d="m 20.391618,44.703097 c -2.14655,-1.128426 -3.360298,-2.045722 -5.013652,-3.789092 -1.683054,-1.77469 -2.756309,-3.365802 -3.623838,-5.372384 -1.163959,-2.69222 -1.508099,-4.362102 -1.521472,-7.382684 -0.0127,-2.869466 0.262826,-4.429295 1.395466,-7.9 0.956995,-2.932483 3.395816,-7.665319 4.941928,-9.590426 0.454832,-0.566324 0.494088,-0.577388 0.961665,-0.271019 0.681079,0.44626 2.765708,2.369702 2.765708,2.551859 0,0.08265 -0.411962,0.771122 -0.915472,1.529932 -1.874887,2.82553 -3.693834,7.135377 -4.381397,10.381362 -1.351999,6.382786 1.737564,13.002734 7.393924,15.842828 0.55162,0.276972 1.021224,0.518536 1.043564,0.53681 0.02234,0.01828 -0.08461,0.479946 -0.237663,1.02594 -0.153055,0.545992 -0.380214,1.510214 -0.504798,2.142714 -0.124584,0.6325 -0.332636,1.147372 -0.462337,1.14416 -0.129702,-0.0032 -0.958433,-0.38571 -1.841626,-0.85 z"
       style="fill:#fef087;fill-opacity:1;stroke:none" />
    <path
       id="path30717"
       d="m 43.054507,27.663213 c -2.991,-0.490446 -6.075325,-1.661882 -8.568466,-3.254328 l -1.111383,-0.709874 1.534758,-1.602142 1.534759,-1.602145 1.876624,0.923943 c 2.740824,1.349428 4.380686,1.758926 7.555132,1.88663 l 2.678508,0.107754 -0.138712,-1.407712 C 47.774659,15.499517 44.048411,9.8659726 38.774564,7.429305 36.564446,6.4081676 34.858899,6.0997774 32.097423,6.2219712 29.420293,6.3404326 27.553016,6.8879856 25.402044,8.1852972 L 24.073188,8.9867678 22.535306,7.5334292 C 21.68947,6.734093 20.972368,6.022664 20.941744,5.9524756 20.839425,5.7179636 23.27935,4.141459 24.972883,3.3478427 c 2.57267,-1.205594 4.723249,-1.6625454 7.82454,-1.6625454 2.004742,0 3.00647,0.1005303 4.375399,0.4391014 7.757955,1.9187405 13.818643,8.7339183 15.434201,17.3555903 0.322274,1.71987 0.359788,7.27807 0.05119,7.585394 -0.665154,0.662416 -6.85859,1.047958 -9.60371,0.59783 z"
       style="fill:#fef087;fill-opacity:1;stroke:none" />
    <path
       id="path30719"
       d="m 18.697423,28.035437 c -0.385,-0.04647 -1.361498,-0.225834 -2.169996,-0.398586 l -1.469996,-0.314096 0.135127,-0.931909 c 0.24043,-1.658143 0.74762,-3.432095 0.97918,-3.424785 0.124127,0.0039 0.765685,0.137512 1.425685,0.296876 4.222784,1.019631 9.356406,-0.398869 12.572648,-3.474021 0.715657,-0.684262 9.65037,-10.4624514 10.058644,-11.0082258 0.08386,-0.1121 2.062218,1.4394408 2.744688,2.1525388 0.316788,0.331006 0.528876,0.719701 0.471306,0.863768 -0.123576,0.309247 -7.598338,8.653363 -9.519065,10.626183 -2.424969,2.490736 -5.646551,4.316269 -9.052787,5.129826 -1.639048,0.391475 -4.85047,0.642355 -6.175434,0.482431 z"
       style="fill:#fef087;fill-opacity:1;stroke:none" />
    <path
       id="path30721"
       d="M 72.623013,17.608937 C 70.264731,12.812689 66.095419,8.1729596 62.526128,6.3728388 58.11171,4.1464894 52.042724,4.577157 48.043694,7.4005422 L 47.489966,7.7914844 45.943694,6.3518172 C 45.093245,5.5600002 44.37095,4.8432584 44.338595,4.7590578 c -0.07308,-0.1901682 1.492462,-1.3294386 2.963003,-2.156232 0.607296,-0.3414446 1.912296,-0.8895903 2.9,-1.2181018 6.705042,-2.23010444 13.602115,-0.68575002 19.038123,4.262911 1.60168,1.4580854 4.048322,4.377257 5.3735,6.411302 1.185234,1.819241 3.181232,5.669637 3.021746,5.829123 -0.197296,0.197296 -3.43485,1.265508 -3.843686,1.268201 -0.30868,0.002 -0.589034,-0.369285 -1.168268,-1.547324 z"
       style="fill:#fef087;fill-opacity:1;stroke:none" />
    <path
       id="path30723"
       d="m 60.818825,33.508937 c -2.612491,-8.046383 -2.66833,-8.247223 -2.91925,-10.5 -0.56754,-5.095399 1.381534,-10.868282 4.896877,-14.5038654 1.062887,-1.0992431 0.87621,-1.1457679 3.027233,0.7544637 l 1.278758,1.1296657 -1.018214,1.134868 c -2.949587,3.287512 -4.316734,7.825054 -3.599594,11.946999 0.132805,0.763328 1.243405,4.476189 2.468,8.250803 1.863741,5.744678 2.179141,6.893534 1.935662,7.050718 -0.370408,0.239128 -3.319348,1.186348 -3.693407,1.186348 -0.193395,0 -0.939291,-2.024788 -2.376065,-6.45 z"
       style="fill:#fef087;fill-opacity:1;stroke:none" />
    <path
       id="path30725"
       d="m 63.54314,25.807937 c -0.249856,-0.85195 -0.504415,-1.820542 -0.565686,-2.152428 l -0.111402,-0.603428 3.465686,-1.140299 c 1.906127,-0.627164 4.320685,-1.37634 5.365685,-1.664835 6.707405,-1.851724 8.892128,-2.955037 11.71292,-5.915174 1.553904,-1.630666 3.48708,-4.4818 3.48708,-5.1429014 0,-0.2556714 -2.963294,-1.4817064 -4.700402,-1.9447468 -2.018011,-0.5379178 -6.820954,-0.515047 -8.841167,0.0421 L 71.914285,7.6837896 70.186001,5.9474614 68.457718,4.211133 70.162289,3.5943469 c 4.641753,-1.6795825 10.035185,-1.7573178 14.762528,-0.2127718 2.70709,0.8844765 7.356964,3.4815739 7.368334,4.1154421 0.0023,0.1309442 -0.232034,0.8959442 -0.520854,1.7 -2.215692,6.1683578 -6.990644,11.1794608 -12.909782,13.5482538 -0.805801,0.322474 -2.815092,0.957804 -4.465092,1.411842 -1.65,0.454038 -4.62592,1.36019 -6.613156,2.013674 -1.987236,0.653482 -3.652236,1.1877 -3.7,1.18715 -0.04776,-6e-4 -0.291271,-0.69805 -0.541127,-1.55 z"
       style="fill:#fef087;fill-opacity:1;stroke:none" />
    <path
       id="path30727"
       d="m 56.597423,45.133465 c -1.971355,-0.246244 -4.683452,-1.054034 -6.688837,-1.992254 -2.113555,-0.988829 -4.811163,-2.735418 -4.811163,-3.115029 0,-0.572862 1.448896,-4.013123 2.302577,-5.467245 1.155375,-1.968012 3.169905,-4.454866 4.608857,-5.689443 2.263008,-1.941591 5.626611,-3.961493 5.771758,-3.466041 0.04117,0.140516 0.337329,1.11268 0.65814,2.160365 l 0.583294,1.904882 -1.169306,0.682985 c -2.532577,1.479263 -4.969511,3.899168 -6.421522,6.376647 -1.134375,1.935516 -1.143824,1.883139 0.46994,2.604712 2.82088,1.261317 4.159487,1.526032 7.696262,1.52197 3.711259,-0.0043 4.784009,-0.22875 7.6,-1.590395 4.787704,-2.315049 7.591146,-6.728859 7.847742,-12.355682 0.07998,-1.753923 0.173856,-2.35 0.370088,-2.35 0.144608,0 1.049848,-0.264438 2.011646,-0.587638 0.961798,-0.323201 1.809336,-0.550179 1.883416,-0.504395 0.277408,0.171448 0.396572,3.258324 0.194388,5.035576 -1.250142,10.989143 -11.192556,18.294271 -22.90728,16.830985 z"
       style="fill:#fef087;fill-opacity:1;stroke:none" />
    <path
       id="path30731"
       d="M 33.226565,64.373577 C 25.264715,60.373773 21.220515,51.218349 23.593536,42.565939 25.371439,36.083427 30.062905,30.503135 36.11786,27.668811 l 1.479563,-0.692584 0.562725,0.641355 c 4.157637,4.738583 6.137275,9.781298 6.137275,15.633424 l 0,2.239673 -2.2,-0.510959 -2.2,-0.510958 0,-1.140441 c 0,-1.804629 -0.384899,-4.105201 -0.986198,-5.894578 -0.642476,-1.911912 -2.157511,-4.674806 -2.563435,-4.674806 -0.772851,0 -3.804886,2.630963 -5.295756,4.595244 -3.877866,5.109244 -4.68036,11.590714 -2.075517,16.763242 1.287085,2.55581 3.60844,4.912058 6.062635,6.153768 0.889352,0.449972 1.075586,0.63037 1.001631,0.970244 -0.04997,0.229626 -0.25794,1.205002 -0.462164,2.167502 -0.204225,0.9625 -0.46524,1.75 -0.580033,1.75 -0.114793,0 -0.912202,-0.353412 -1.772021,-0.78536 z"
       style="fill:#fef087;fill-opacity:1;stroke:none" />
    <path
       id="path30733"
       d="m 52.214761,60.729687 c -0.04732,-0.148913 -0.274294,-0.859852 -0.504388,-1.579866 -1.235536,-3.866265 -4.842854,-7.502999 -8.723144,-8.794277 -0.675634,-0.224836 -4.324736,-1.066628 -8.109116,-1.870648 l -6.88069,-1.461854 -0.06355,-0.534774 c -0.05238,-0.440802 0.630213,-3.662663 0.815168,-3.847618 0.111684,-0.111685 14.095114,2.939861 15.348379,3.349413 4.62996,1.513014 8.693144,4.984883 10.847514,9.268874 0.495214,0.984739 1.552486,3.768259 1.552486,4.08729 0,0.199694 -1.58671,0.891868 -2.76251,1.205096 -0.47438,0.126372 -0.99112,0.279121 -1.148314,0.339442 -0.157192,0.06032 -0.32452,-0.01216 -0.371838,-0.161078 z"
       style="fill:#fef087;fill-opacity:1;stroke:none" />
    <path
       id="path30735"
       d="m 41.074435,83.008937 c -2.041649,-2.499376 -3.22944,-4.563748 -4.229014,-7.35 -0.932262,-2.598624 -1.235411,-4.542262 -1.216565,-7.8 0.01725,-2.982628 0.02437,-3.027796 1.228348,-7.8 1.200522,-4.758498 2.037384,-8.542274 2.043282,-9.23846 0.007,-0.827647 0.281383,-0.950187 1.530661,-0.683627 0.641452,0.136868 1.593683,0.385031 2.11607,0.551473 0.808062,0.257465 0.935936,0.367385 0.856932,0.736618 -0.05107,0.238698 -0.282815,1.423996 -0.514981,2.633996 -0.232166,1.21 -0.932785,4.18 -1.556932,6.6 l -1.134813,4.4 0.01281,3.2 c 0.01155,2.886276 0.06571,3.372694 0.552455,4.961494 0.715061,2.334068 2.339909,5.537186 2.80934,5.538148 0.377475,8e-4 2.69005,-1.821496 3.852714,-3.035872 2.162511,-2.258692 4.244593,-6.003239 4.618235,-8.305723 0.05816,-0.358404 0.206705,-0.727708 0.330098,-0.820677 0.123394,-0.09297 0.989352,-0.362405 1.924352,-0.598747 0.935,-0.236342 1.914576,-0.490373 2.176836,-0.564512 0.474714,-0.1342 0.47618,-0.129557 0.329616,1.043515 -0.489076,3.91443 -2.742041,8.626486 -5.703064,11.927908 -1.587064,1.769512 -4.090716,3.660438 -6.437321,4.861896 -1.173664,0.600914 -2.213214,1.09257 -2.310112,1.09257 -0.0969,0 -0.672422,-0.6075 -1.278943,-1.35 z"
       style="fill:#fef087;fill-opacity:1;stroke:none" />
    <path
       id="path30737"
       d="m 41.467813,66.612761 -0.929611,-0.07408 0.11081,-0.82615 c 0.06095,-0.454382 0.260024,-1.417326 0.442397,-2.139874 l 0.331587,-1.313724 3.187214,-0.02414 c 7.643064,-0.05788 12.64744,-1.734002 16.047565,-5.374823 2.466192,-2.640775 3.643484,-5.545256 3.764556,-9.28749 l 0.07397,-2.286451 1.62316,-0.468609 c 0.892738,-0.257734 1.800698,-0.563623 2.017688,-0.679753 0.21699,-0.116129 0.450402,-0.155271 0.518692,-0.08698 0.28227,0.28227 0.412632,3.325145 0.218322,5.096025 -0.501094,4.566821 -2.730612,8.951562 -6.079222,11.955871 -4.681716,4.200345 -12.480034,6.215153 -21.327132,5.510173 z"
       style="fill:#fef087;fill-opacity:1;stroke:none" />
  </g>
</svg>
