<?xml version="1.0" encoding="UTF-8" standalone="no"?>
<svg
   xmlns:dc="http://purl.org/dc/elements/1.1/"
   xmlns:cc="http://creativecommons.org/ns#"
   xmlns:rdf="http://www.w3.org/1999/02/22-rdf-syntax-ns#"
   xmlns:svg="http://www.w3.org/2000/svg"
   xmlns="http://www.w3.org/2000/svg"
   height="224.21092"
   width="228.59065"
   xml:space="preserve"
   enable-background="new -363 164 233 234"
   viewBox="-363 164 228.59065 224.21092"
   y="0px"
   x="0px"
   id="svg2985"
   version="1.1"><metadata
     id="metadata9"><rdf:RDF><cc:Work
         rdf:about=""><dc:format>image/svg+xml</dc:format><dc:type
           rdf:resource="http://purl.org/dc/dcmitype/StillImage" /><dc:title></dc:title></cc:Work></rdf:RDF></metadata><defs
     id="defs7" /><g
     transform="translate(-3.7,-8.989077)"
     id="g3011"><path
       style="fill:none"
       d="m -363,281 0,-117 116.5,0 116.5,0 0,117 0,117 -116.5,0 -116.5,0 0,-117 z"
       id="path3019" /></g><path
     style="fill:#fef087"
     d="m -254.7,384.21092 c -11.1,-8.8 -24.2,-27 -30.3,-42.1 -1.8,-4.5 -3.1,-8.3 -2.8,-8.6 0.2,-0.2 2.8,0.5 5.7,1.6 2.9,1.1 7.4,2.5 9.9,3 4.4,0.9 4.8,1.4 8.2,7.6 4.5,8.4 13,18 15.3,17.1 2.7,-1 10.5,-11.7 15.3,-21 6.3,-12.2 9.4,-24.9 10.1,-41.3 l 0.6,-13.1 7.9,-2.5 c 4.3,-1.4 8.1,-2.3 8.4,-2 0.3,0.3 0.5,5.9 0.5,12.6 0,25.8 -6.2,47 -19.5,67.1 -4.4,6.6 -14.7,18 -20.5,22.6 l -3.7,3 -5.1,-4 0,0 z m -11.8,-46.7 c -30,-6.6 -55.4,-29.6 -64.8,-58.6 -1.9,-6 -4.6,-21.2 -4.7,-26.3 0,-0.5 3.7,2.6 8.2,6.8 4.5,4.2 8.5,7.6 8.9,7.6 0.4,0 1.9,3.6 3.4,8 7.2,21.7 27.4,40.2 50.1,46 8.5,2.2 24.8,2.6 32.3,0.9 2.4,-0.6 4.6,-0.8 4.9,-0.5 0.8,0.8 -3.7,14.4 -5.3,16 -1.3,1.3 -4,1.5 -14.2,1.5 -7.1,0 -15.5,-0.6 -18.8,-1.4 z m 58.4,-9.3 c 0.5,-1 1.5,-5.8 2.2,-10.5 1.2,-8.5 1.4,-8.8 5.5,-12.2 8.9,-7.3 18.4,-22.5 21.8,-34.9 2.6,-9.8 3.1,-22.8 1.1,-32.5 -2.5,-12.2 -9.3,-26.1 -16.6,-33.8 -1.2,-1.3 -2,-2.5 -1.7,-2.8 0.3,-0.3 4.7,-0.7 9.9,-1 l 9.3,-0.5 2.2,3.3 c 18.5,28.3 18.9,66.3 1,95.1 -6.1,9.8 -16.4,20.3 -26.1,26.6 -8.4,5.4 -10.2,6.1 -8.6,3.2 z m -73.9,-16.7 c -3.5,-1.9 -7.7,-4.7 -9.3,-6.2 l -2.9,-2.8 0.7,-13.4 c 0.8,-16.3 3.7,-28.6 9.9,-41.5 4.1,-8.7 11.5,-20.4 17.1,-27 2.8,-3.3 2.7,-3.3 11.1,4.1 5.4,4.8 5.7,3.6 -2.5,13.8 -12.6,15.7 -20.5,45.2 -18.1,67.5 0.5,4.7 0.8,8.6 0.8,8.7 -0.3,0.1 -3.3,-1.4 -6.8,-3.2 z m 13.6,-24.6 c -3.2,-0.5 -6,-1 -6.2,-1.1 -0.3,-0.3 2.2,-12.9 3.1,-15.9 0.5,-1.5 1,-1.5 6.2,-0.2 9.1,2.3 28,2 38.5,-0.5 15.8,-3.9 29.6,-10.8 41.4,-20.9 3.4,-2.9 6.5,-5.3 6.8,-5.3 0.8,0 0.7,15.1 -0.1,19 -1.6,7.8 -29.5,20.7 -52.7,24.5 -9.8,1.6 -27.5,1.8 -37,0.4 z m -34.1,-12.2 c -29.5,-15.9 -50.6,-42.4 -58.5,-73.3 -1.1,-4.3 -2,-9.2 -2,-11 0,-2.9 0.5,-3.4 4.2,-4.9 9.2,-3.7 22.8,-5.8 37.6,-5.8 7.9,0 14.7,0.4 15.2,0.9 0.5,0.5 -1.9,3.8 -6.1,8.1 l -7,7.2 -9.4,1 c -12.3,1.4 -14.8,2.3 -14,5.3 1.8,6.1 4.9,13.8 7.7,18.7 7.1,12.8 21.9,27.7 34.7,35 9.8,5.6 9.2,4.4 6.8,13.8 -1.2,4.5 -2.4,8.2 -2.7,8.2 -0.3,0.1 -3.2,-1.4 -6.5,-3.2 z m 74,-13.3 c -7.1,-24.6 -32.3,-49.6 -59.2,-58.6 l -7.2,-2.4 2.7,-2.5 c 1.5,-1.4 5.1,-4.1 8.1,-6.1 5.3,-3.5 5.5,-3.6 9,-2.1 2,0.8 6.3,3 9.6,4.9 25,14 43.7,35.1 53,59.8 l 2.6,6.8 -5.3,2.4 c -2.9,1.3 -6.7,2.7 -8.4,3.1 -3.2,0.5 -3.3,0.4 -4.9,-5.3 z m 69.5,-19.6 c 0,-2.4 -0.9,-7.6 -2,-11.6 l -2,-7.3 2.6,-5.7 c 3.1,-6.8 5.4,-13 5.4,-14.7 0,-2.4 -10,-4 -24.5,-3.9 -12.2,0.1 -15.2,0.4 -23,2.8 -9.6,2.9 -23.6,9.1 -28.6,12.6 l -3,2.2 -6.3,-6.1 c -7.2,-6.9 -7.4,-6.2 2.9,-12.5 27.6,-16.7 63.1,-21.2 93.5,-11.8 10,3.1 10.4,3.5 9,10.6 -3.2,16.2 -11.8,34.7 -21.7,46.8 l -2.3,2.8 0,-4.2 z m -162.5,-5.3 c -1.5,-1.6 -4.4,-4.9 -6.3,-7.3 l -3.6,-4.3 1.9,-5.5 c 3.2,-9.5 11.1,-21.1 20.5,-30.3 9.4,-9.2 15.5,-13.3 27.7,-18.5 24.6,-10.6 55.1,-8.3 78.8,5.8 l 7,4.2 -5.5,1.1 c -3,0.6 -7.9,1.9 -10.8,2.9 l -5.3,1.8 -8.2,-2.7 c -11.7,-3.9 -27,-4.6 -38.7,-1.6 -13.7,3.4 -24,9.2 -34.1,19.1 -7.2,7.1 -9.3,10.1 -13.2,18 -2.6,5.2 -5.3,12 -6,15 l -1.4,5.5 c 0,-0.3 -2.8,-3.2 -2.8,-3.2 z"
     id="path3013" /></svg>