<?xml version="1.0" encoding="utf-8"?>
<!-- Generator: Adobe Illustrator 17.1.0, SVG Export Plug-In . SVG Version: 6.00 Build 0)  -->
<!DOCTYPE svg PUBLIC "-//W3C//DTD SVG 1.1//EN" "http://www.w3.org/Graphics/SVG/1.1/DTD/svg11.dtd">
<svg version="1.1" id="Layer_1" xmlns="http://www.w3.org/2000/svg" xmlns:xlink="http://www.w3.org/1999/xlink" x="0px" y="0px"
	 viewBox="0 0 64 64" enable-background="new 0 0 64 64" xml:space="preserve">
<g>
	<path d="M59.9,6L59.9,6L32,12.1c0,0,0,0-0.4,0c0,0,0,0-0.4,0L3.6,6.5H3.2C1.9,6,1,7.3,1,8.2v41.9c0,0.9,0.9,1.7,1.7,2.2L30.7,58
		h0.4c0.4,0,0.4,0,0.9,0c0.4,0,0.4,0,0.9,0h0.4l27.9-5.7c0.9,0,1.7-0.9,1.7-2.2V8.2C62.1,7.3,61.3,6,59.9,6z M21.1,15.2v22.3v0.4
		l0,0c0,0,0,0-0.4,0l-3.1-4.8l-3.5,3.5c0,0,0,0-0.4,0v-0.4V13.9c0-0.9,0.4-1.3,0.9-0.9l5.7,0.9C20.6,13.9,21.1,14.3,21.1,15.2z
		 M59.5,49.7l-26.2,5.7V14.8l26.2-5.7V49.7z"/>
	<path d="M37.7,25.7L37.7,25.7l16.6-3.5c0.4,0,0.9-0.4,0.9-1.3c0-0.4-0.4-0.9-1.3-0.9l-16.2,3.9c-0.4,0-0.9,0.4-0.9,1.3
		C36.8,25.2,37.2,25.7,37.7,25.7z"/>
	<path d="M37.7,31.3L37.7,31.3l16.6-3.5c0.4,0,0.9-0.4,0.9-1.3c0-0.4-0.4-0.9-1.3-0.9l-16.2,3.9c-0.4,0-0.9,0.4-0.9,1.3
		C36.8,30.9,37.2,31.3,37.7,31.3z"/>
	<path d="M37.7,37L37.7,37l16.6-3.5c0.4,0,0.9-0.4,0.9-1.3c0-0.4-0.4-0.9-1.3-0.9l-16.2,3.9c-0.4,0-0.9,0.4-0.9,1.3
		C36.8,36.6,37.2,37,37.7,37z"/>
	<path d="M37.7,42.7L37.7,42.7l16.6-3.5c0.4,0,0.9-0.4,0.9-1.3c0-0.4-0.4-0.9-1.3-0.9L37.7,41c-0.4,0-0.9,0.4-0.9,1.3
		C36.8,42.3,37.2,42.7,37.7,42.7z"/>
</g>
</svg>
