<?xml version="1.0" encoding="utf-8"?>
<!-- Generator: Adobe Illustrator 18.1.1, SVG Export Plug-In . SVG Version: 6.00 Build 0)  -->
<svg version="1.1" id="imgView" xmlns="http://www.w3.org/2000/svg" xmlns:xlink="http://www.w3.org/1999/xlink" x="0px" y="0px"
	 viewBox="290.7 0 378.6 560" enable-background="new 290.7 0 378.6 560" xml:space="preserve">
<g>
	<path fill="#FFFFFF" d="M669.3,12.1c0-6.7-5.4-12.1-12.1-12.1H302.8c-6.7,0-12.1,5.4-12.1,12.1v535.8c0,6.7,5.4,12.1,12.1,12.1
		h354.5c6.7,0,12.1-5.4,12.1-12.1L669.3,12.1L669.3,12.1z M583.9,482.7v-95.4h18.5v95.4H583.9z M550.6,482.7l9.2-38.8v38.8H550.6z
		 M400.3,482.7V375.2c0-6.7-5.4-12.1-12.1-12.1h-73.3V346h330.3v17.1h-73.3c-3.1,0-5.9,1.2-8.1,3.1l-39.8-9.4
		c-3.1-0.7-6.4-0.2-9.1,1.5c-2.7,1.7-4.7,4.4-5.4,7.5l-27.5,116.4c0,0.2-0.1,0.3-0.1,0.5L400.3,482.7L400.3,482.7z M314.9,482.7
		v-95.4h18.5v95.4H314.9z M357.6,387.3h18.5v95.4h-18.5V387.3z M314.9,226.4h18.5v95.4h-18.5V226.4z M516.7,303.3v18.5h-95.4v-18.5
		H516.7z M421.3,279.1v-18.5h95.4v18.5H421.3z M540.9,321.8v-36.4l8.6,36.4H540.9z M551.9,226.5l18-4.3l21.9,92.9l-18,4.3
		L551.9,226.5z M548.2,387.4l-21.9,92.9l-18-4.3l21.9-92.9L548.2,387.4z M626.6,387.3h18.5v95.4h-18.5V387.3z M645.1,142.4v18.5
		h-95.4v-18.5H645.1z M549.7,118.2V99.7h95.4v18.5L549.7,118.2L549.7,118.2z M314.9,24.2h330.3v51.3H537.6
		c-6.7,0-12.1,5.4-12.1,12.1v73.3H443V53.4c0-6.7-5.4-12.1-12.1-12.1h-116V24.2z M418.8,65.5v95.4h-18.5V65.5H418.8z M376.1,65.5
		v95.4h-18.5V65.5H376.1z M314.9,65.5h18.5v95.4h-18.5V65.5z M645.1,185.1v136.7h-26.9c0-0.2-0.1-0.3-0.1-0.5l-27.5-116.4
		c-0.7-3.1-2.7-5.8-5.4-7.5c-2.7-1.7-6-2.2-9.1-1.5l-41.6,9.8c-6.5,1.5-10.5,8-9,14.5l3.8,16.2c-0.2,0-0.4,0-0.5,0H409.2
		c-6.7,0-12.1,5.4-12.1,12.1v73.3h-39.5V214.3c0-6.7-5.4-12.1-12.1-12.1h-30.6v-17.1L645.1,185.1L645.1,185.1z M645.1,535.8H314.9
		v-28.9h330.3V535.8z"/>
</g>
</svg>
