<?xml version="1.0" encoding="utf-8"?>
<!-- Generator: Adobe Illustrator 17.1.0, SVG Export Plug-In . SVG Version: 6.00 Build 0)  -->
<!DOCTYPE svg PUBLIC "-//W3C//DTD SVG 1.1//EN" "http://www.w3.org/Graphics/SVG/1.1/DTD/svg11.dtd">
<svg version="1.1" id="Layer_1" xmlns="http://www.w3.org/2000/svg" xmlns:xlink="http://www.w3.org/1999/xlink" x="0px" y="0px"
	 viewBox="0 0 64 64" enable-background="new 0 0 64 64" xml:space="preserve">
<g>
	<path d="M55.2,8.7V2.3C55.2,1.6,54.7,1,54,1H16.5c-4.3,0-7.7,3.4-7.7,7.7v46.5c0,4.3,3.4,7.8,7.7,7.8H54c0.7,0,1.3-0.6,1.3-1.3
		V17.8c0-0.7-0.6-1.3-1.3-1.3H30.4v23.3c0,0.2-0.1,0.5-0.4,0.5c-0.1,0-0.2,0-0.2,0c-0.2,0-0.3-0.1-0.4-0.2l-6-6l-6,6
		c-0.2,0.2-0.4,0.2-0.6,0.1c-0.2-0.1-0.4-0.3-0.4-0.5V16.5h0V8.7H55.2z"/>
</g>
</svg>
