<?xml version="1.0" encoding="utf-8"?>
<!-- Generator: Adobe Illustrator 17.1.0, SVG Export Plug-In . SVG Version: 6.00 Build 0)  -->
<!DOCTYPE svg PUBLIC "-//W3C//DTD SVG 1.1//EN" "http://www.w3.org/Graphics/SVG/1.1/DTD/svg11.dtd">
<svg version="1.1" id="Layer_1" xmlns="http://www.w3.org/2000/svg" xmlns:xlink="http://www.w3.org/1999/xlink" x="0px" y="0px"
	 viewBox="0 0 64 64" enable-background="new 0 0 64 64" xml:space="preserve">
<g>
	<path d="M10,44.9h7.7v7.8H10V44.9z"/>
	<path d="M21.7,44.9h7.8v7.8h-7.8V44.9z"/>
	<path d="M33.3,44.9H41v7.8h-7.8V44.9z"/>
	<path d="M21.7,33.3h7.8V41h-7.8V33.3z"/>
	<path d="M33.3,33.3H41V41h-7.8V33.3z"/>
	<path d="M44.9,33.3h7.8V41h-7.8V33.3z"/>
	<path d="M10,33.3h7.7V41H10V33.3z"/>
	<path d="M21.7,21.7h7.8v7.8h-7.8V21.7z"/>
	<path d="M33.3,21.7H41v7.8h-7.8V21.7z"/>
	<path d="M44.9,21.7h7.8v7.8h-7.8V21.7z"/>
	<path d="M1,57.8h62V63H1V57.8z"/>
	<path d="M57.8,2.3H63V63h-5.2V2.3z"/>
	<path d="M1,2.3h5.2V63H1V2.3z"/>
	<path d="M1,6.2h62v9H1V6.2z"/>
	<path d="M16.5,1h31v9h-31V1z"/>
	<path d="M55.2,1H63v9h-7.8V1z"/>
	<path d="M1,1h7.8v9H1V1z"/>
</g>
</svg>
