<?xml version="1.0" encoding="utf-8"?>
<!-- Generator: Adobe Illustrator 17.1.0, SVG Export Plug-In . SVG Version: 6.00 Build 0)  -->
<!DOCTYPE svg PUBLIC "-//W3C//DTD SVG 1.1//EN" "http://www.w3.org/Graphics/SVG/1.1/DTD/svg11.dtd">
<svg version="1.1" id="Layer_1" xmlns="http://www.w3.org/2000/svg" xmlns:xlink="http://www.w3.org/1999/xlink" x="0px" y="0px"
	 viewBox="0 0 64 64" enable-background="new 0 0 64 64" xml:space="preserve">
<g>
	<path d="M19,56.6c0,3.7,2.9,6.4,6.4,6.4c3.7,0,6.4-2.9,6.4-6.4c0-3.7-2.9-6.4-6.4-6.4C21.9,50.1,19,53,19,56.6z M39.7,56.6
		c0,3.7,2.9,6.4,6.4,6.4c3.7,0,6.4-2.9,6.4-6.4c0-3.7-2.9-6.4-6.4-6.4C42.6,50.1,39.7,53,39.7,56.6z M62.9,14.3
		c0.2-0.4,0-0.8-0.2-1.2c-0.2-0.2-0.6-0.6-1-0.6h-44l-2.1-8.7C15.2,2.2,13.6,1,11.7,1H4.9C2.8,1,1.1,2.7,1.1,4.9s1.7,3.9,3.9,3.9
		h3.9l7.9,31.9c0.4,1.7,1.9,2.9,3.7,2.9h30.9c1.7,0,3.3-1.2,3.7-2.9L62.9,14.3z"/>
</g>
</svg>
