<?xml version="1.0" encoding="utf-8"?>
<!-- Generator: Adobe Illustrator 18.1.1, SVG Export Plug-In . SVG Version: 6.00 Build 0)  -->
<svg version="1.1" id="Layer_1" xmlns="http://www.w3.org/2000/svg" xmlns:xlink="http://www.w3.org/1999/xlink" x="0px" y="0px"
	 viewBox="200 0 560 560" enable-background="new 200 0 560 560" xml:space="preserve">
<g>
	<g>
		<path fill="#FEF087" d="M480.2,302.5c18.9,9.7,41.4,26.9,58.4,57.3c1.6,2.8,3,5.5,4.4,8.5l7.1,17.5c4.4,13.1,6.9,26.7,7.4,40.5
			l0,0c0,0.2,0,0.2,0,0.5c0,1.8,0.2,3.9,0.2,5.8c0,14.7-2.3,29.4-6.9,43.7c-5.3,0.2-14.5-0.5-18.9-1.6c3.2-8.3,8.1-23.9,8.1-43.5
			c0-1.4,0-2.5,0-3.9c-0.7-17.7-5.3-31.5-8.3-38.7l0,0c-2.1-7.4-7.6-18.4-7.8-18.4c-0.2-0.5-0.5-1.2-0.9-1.6
			c-12.2-22.1-27.8-36.4-42.8-45.6c-14.7,9.4-30.1,23.9-41.9,46.2c-0.2,0.5-0.5,1.2-0.9,1.6c0,0-5.5,11.3-7.4,18.6l0,0
			c-2.8,7.4-7.1,21.2-7.6,38.9c0,1.4,0,2.5,0,3.9c0.2,19.6,5.3,35,8.7,43.3c-4.4,1.2-13.6,2.3-18.9,1.8c-4.8-14.3-7.4-28.8-7.6-43.5
			c0-2.1,0-3.9,0-5.8c0-0.2,0-0.2,0-0.5l0,0c0.2-13.8,2.5-27.1,6.7-40.5c0,0,6.7-17.5,6.9-17.5c1.4-2.8,2.8-5.8,4.1-8.5
			C439.3,330.2,461.6,312.7,480.2,302.5z M482.3,560c18.4-9.9,39.8-26.9,56.1-55.9c1.2-2.1,2.3-4.4,3.5-6.4
			c-4.4-0.2-12.7-1.2-18.6-2.5c0,0.2-0.2,0.2-0.2,0.5c-10.6,18.6-24.2,33.4-40.7,44.2c-16.8-10.4-30.8-25.1-41.4-43.5
			c0-0.2-0.2-0.2-0.2-0.5c-6,1.6-14,2.5-18.6,3c1.2,2.1,2.3,4.4,3.5,6.4C442,533.8,463.9,550.6,482.3,560z M481.2,407.7
			c6.9-4.6,14-8.7,21.9-12c10.8-4.6,20.2-6.7,26.5-7.6c-1.4-5.8-3.9-12-7.4-17c-16.3,3.2-30.1,9.2-41.2,15.4
			c-11-6.2-25.1-11.7-41.4-14.7c-3.2,5.3-5.8,11.5-7.1,17.3c6.2,0.9,15.6,2.8,26.7,7.4C466.9,399.4,474.2,403.3,481.2,407.7z
			 M390.7,370.9l-23.2,23.7c12.9-4.6,26.9-7.1,41.6-7.6c0.2,0,0.5,0,0.7,0c1.8-6.7,3.7-11.5,6.4-17.7c-2.5,0-4.8,0-7.4,0
			C402.2,369.5,396.5,370,390.7,370.9L390.7,370.9z M570.9,369.3c-5.8-0.7-11.5-1.2-17.9-1.2c-2.5,0-5.1,0-7.4,0.2
			c3,6,4.8,11,6.7,17.5c0.2,0,0.5,0,0.7,0c14.7,0.2,28.8,2.3,41.6,6.9L570.9,369.3z M481.6,477.9c11.3,6.4,25.5,12.2,42.6,15.4l0,0
			c3,0.5,12.4,1.8,18.6,2.3l0,0c3.2,0.2,6.7,0.2,10.1,0.2c41.4-0.5,70.6-16.3,87.9-29.7c6-4.6,10.8-9.2,15-13.3l-12.7-12.4
			c-3.7,3.7-8.3,8.1-13.8,12.2c-21.6,16.6-47.4,25.1-76.6,25.3c-0.5,0-0.9,0-1.4,0l0,0c0,0-15.2,0-22.3-2.3l0,0
			c-10.1-1.6-28.5-6.4-47.6-19.6c-18.9,13.3-37.3,18.4-47.2,20.2l0,0c-7.1,2.3-22.3,2.5-22.3,2.5l0,0c-0.5,0-0.9,0-1.4,0
			c-29,0.2-55-7.8-77.1-24.2c-5.5-4.1-10.4-8.3-14-12L307,455.3c4.1,4.1,9.2,8.7,15.2,13.1c17.5,13.1,46.9,28.5,88.3,28.1
			c3.5,0,6.9-0.2,10.1-0.5l0,0c6.2-0.5,15.6-2.1,18.6-2.5l0,0C456.3,490.5,470.3,484.5,481.6,477.9z"/>
	</g>
	<g>
		<path fill="#FEF087" d="M457.5,280.2c-9.7,18.9-26.9,41.4-57.3,58.4c-2.8,1.6-5.5,3-8.5,4.4l-17.5,7.1
			c-13.1,4.4-26.7,6.9-40.5,7.4l0,0c-0.2,0-0.2,0-0.5,0c-1.8,0-3.9,0.2-5.8,0.2c-14.7,0-29.4-2.3-43.7-6.9
			c-0.2-5.3,0.5-14.5,1.6-18.9c8.3,3.2,23.9,8.1,43.5,8.1c1.4,0,2.5,0,3.9,0c17.7-0.7,31.5-5.3,38.7-8.3l0,0
			c7.4-2.1,18.4-7.6,18.4-7.8c0.5-0.2,1.2-0.5,1.6-0.9c22.1-12.2,36.4-27.8,45.6-42.8c-9.4-14.7-23.9-30.1-46.2-41.9
			c-0.5-0.2-1.2-0.5-1.6-0.9c0,0-11.3-5.5-18.6-7.4l0,0c-7.4-2.8-21.2-7.1-38.9-7.6c-1.4,0-2.5,0-3.9,0c-19.6,0.2-35,5.3-43.3,8.7
			c-1.2-4.4-2.3-13.6-1.8-18.9c14.3-4.8,28.8-7.4,43.5-7.6c2.1,0,3.9,0,5.8,0c0.2,0,0.2,0,0.5,0l0,0c13.8,0.2,27.1,2.5,40.5,6.7
			c0,0,17.5,6.7,17.5,6.9c2.8,1.4,5.8,2.8,8.5,4.1C429.8,239.3,447.3,261.6,457.5,280.2z M200,282.3c9.9,18.4,26.9,39.8,55.9,56.1
			c2.1,1.2,4.4,2.3,6.4,3.5c0.2-4.4,1.2-12.7,2.5-18.6c-0.2,0-0.2-0.2-0.5-0.2c-18.6-10.6-33.6-24.2-44.2-40.7
			c10.4-16.8,25.1-30.8,43.5-41.4c0.2,0,0.2-0.2,0.5-0.2c-1.6-6-2.5-14-2.8-18.6c-2.1,1.2-4.4,2.3-6.4,3.5
			C226.2,242,209.4,263.9,200,282.3z M352.3,281.2c4.6,6.9,8.7,14,12,21.9c4.6,10.8,6.7,20.2,7.6,26.5c5.8-1.4,12-3.9,17-7.4
			c-3.2-16.3-9.2-30.1-15.4-41.2c6.2-11,11.7-25.1,14.7-41.4c-5.3-3.2-11.5-5.8-17.3-7.1c-0.9,6.2-2.8,15.6-7.1,26.7
			C360.6,266.9,356.9,274.2,352.3,281.2z M389.4,190.7l-23.9-23.2c4.6,12.9,7.1,26.7,7.6,41.6c0,0.2,0,0.5,0,0.7
			c6.7,1.8,11.5,3.7,17.7,6.4c0-2.5,0-4.8,0-7.4C390.5,202.2,390,196.5,389.4,190.7L389.4,190.7z M390.7,370.9
			c0.7-5.8,1.2-11.5,1.2-17.9c0-2.5,0-5.1-0.2-7.4c-6,3-11,4.8-17.5,6.7c0,0.2,0,0.5,0,0.7c-0.2,14.7-2.3,28.8-6.9,41.6L390.7,370.9
			z M282.1,281.6c-6.4,11.3-12.2,25.5-15.4,42.6l0,0c-0.5,3-1.8,12.4-2.3,18.6l0,0c-0.2,3.2-0.2,6.7-0.2,10.1
			c0.5,41.4,16.3,70.6,29.7,87.9c4.6,6,9.2,10.8,13.3,15l12.4-12.7c-3.7-3.7-8.1-8.3-12.2-13.8c-16.6-21.6-25.1-47.4-25.3-76.6
			c0-0.5,0-0.9,0-1.4l0,0c0,0,0-15.2,2.3-22.3l0,0c1.6-9.9,6.4-28.5,19.6-47.6c-13.3-18.9-18.4-37.3-20.2-47.2l0,0
			c-2.3-7.1-2.5-22.3-2.5-22.3l0,0c0-0.5,0-0.9,0-1.4c-0.7-29,7.4-55,23.7-77.1c4.1-5.5,8.3-10.4,12-14L304.2,107
			c-4.1,4.1-8.7,9.2-13.1,15.2c-12.9,17.5-28.3,46.9-28.1,88.6c0,3.5,0.2,6.9,0.5,10.1l0,0c0.5,6.2,2.1,15.6,2.5,18.6l0,0
			C269.5,256.3,275.5,270.3,282.1,281.6z"/>
	</g>
	<g>
		<path fill="#FEF087" d="M479.8,257.5c-18.9-9.7-41.4-26.9-58.4-57.3c-1.6-2.8-3-5.5-4.4-8.5l-7.1-17.5
			c-4.4-13.1-6.9-26.7-7.4-40.5l0,0c0-0.2,0-0.2,0-0.5c0-1.8-0.2-3.9-0.2-5.8c0-14.7,2.3-29.4,6.9-43.7c5.3-0.2,14.5,0.5,18.9,1.6
			c-3.2,8.3-8.1,23.9-8.1,43.5c0,1.4,0,2.5,0,3.9c0.7,17.7,5.3,31.5,8.3,38.7l0,0c2.1,7.4,7.6,18.4,7.8,18.4
			c0.2,0.5,0.5,1.2,0.9,1.6c12.2,22.1,27.8,36.4,42.8,45.6c14.7-9.4,30.1-23.9,41.9-46.2c0.2-0.5,0.5-1.2,0.9-1.6
			c0,0,5.5-11.3,7.4-18.6l0,0c2.8-7.4,7.1-21.2,7.6-38.9c0-1.4,0-2.5,0-3.9c-0.2-19.6-5.3-35-8.7-43.3c4.4-1.2,13.6-2.3,18.9-1.8
			c4.8,14.3,7.4,28.8,7.6,43.5c0,2.1,0,3.9,0,5.8c0,0.2,0,0.2,0,0.5l0,0c-0.2,13.8-2.5,27.1-6.7,40.5c0,0-6.7,17.5-6.9,17.5
			c-1.4,2.8-2.8,5.8-4.1,8.5C520.7,229.8,498.4,247.3,479.8,257.5z M477.7,0c-18.4,9.9-39.8,26.9-56.1,55.9
			c-1.2,2.1-2.3,4.4-3.5,6.4c4.4,0.2,12.7,1.2,18.6,2.5c0-0.2,0.2-0.2,0.2-0.5c10.6-18.6,24.2-33.6,40.7-44.2
			c16.8,10.4,30.8,25.1,41.4,43.5c0,0.2,0.2,0.2,0.2,0.5c6-1.6,14-2.5,18.6-3c-1.2-2.1-2.3-4.4-3.5-6.4C518,26.2,496.1,9.4,477.7,0z
			 M478.8,152.3c-6.9,4.6-14,8.7-21.9,12c-10.8,4.6-20.2,6.7-26.5,7.6c1.4,5.8,3.9,12,7.4,17c16.3-3.2,30.1-9.2,41.2-15.4
			c11,6.2,25.1,11.7,41.4,14.7c3.2-5.3,5.8-11.5,7.1-17.3c-6.2-0.9-15.6-2.8-26.7-7.1C493.1,160.6,485.8,156.9,478.8,152.3z
			 M569.3,189.4l23.2-23.7c-12.9,4.6-26.7,7.1-41.6,7.6c-0.2,0-0.5,0-0.7,0c-1.8,6.7-3.7,11.5-6.4,17.7c2.5,0,4.8,0,7.4,0
			C557.8,190.5,563.7,190,569.3,189.4L569.3,189.4z M389.4,190.7c5.8,0.7,11.5,1.2,17.9,1.2c2.5,0,5.1,0,7.4-0.2
			c-3-6-4.8-11-6.7-17.5c-0.2,0-0.5,0-0.7,0c-14.7-0.2-28.8-2.3-41.6-6.9L389.4,190.7z M478.4,82.1c-11.3-6.4-25.5-12.2-42.6-15.4
			l0,0c-3-0.5-12.4-1.8-18.6-2.3l0,0c-3.2-0.2-6.7-0.2-10.1-0.2c-41.4,0.5-70.6,16.3-87.9,29.7c-6,4.6-10.8,9.2-15,13.3l12.7,12.4
			c3.7-3.7,8.3-8.1,13.8-12.2c21.6-16.6,47.4-25.1,76.6-25.3c0.5,0,0.9,0,1.4,0l0,0c0,0,15.2,0,22.3,2.3l0,0
			c10.1,1.6,28.5,6.4,47.6,19.6c18.9-13.3,37.3-18.4,47.2-20.2l0,0c7.1-2.3,22.3-2.5,22.3-2.5l0,0c0.5,0,0.9,0,1.4,0
			c29-0.2,55,7.8,77.1,24.2c5.5,4.1,10.4,8.3,14,12l12.4-12.7c-4.1-4.1-9.2-8.7-15.2-13.1c-17.5-13.1-46.9-28.5-88.3-28.1
			c-3.5,0-6.9,0.2-10.1,0.5l0,0c-6.2,0.5-15.6,2.1-18.6,2.5l0,0C503.7,69.5,489.7,75.5,478.4,82.1z"/>
	</g>
	<g>
		<path fill="#FEF087" d="M502.5,279.8c9.7-18.9,26.9-41.4,57.3-58.4c2.8-1.6,5.5-3,8.5-4.4l17.5-7.1c13.1-4.4,26.7-6.9,40.5-7.4
			l0,0c0.2,0,0.2,0,0.5,0c1.8,0,3.9-0.2,5.8-0.2c14.7,0,29.4,2.3,43.7,6.9c0.2,5.3-0.5,14.5-1.6,18.9c-8.3-3.2-23.9-8.1-43.5-8.1
			c-1.4,0-2.5,0-3.9,0c-17.7,0.7-31.5,5.3-38.7,8.3l0,0c-7.4,2.1-18.4,7.6-18.4,7.8c-0.5,0.2-1.2,0.5-1.6,0.9
			c-22.1,12.2-36.4,27.8-45.6,42.8c9.4,14.7,23.9,30.1,46.2,41.9c0.5,0.2,1.2,0.5,1.6,0.9c0,0,11.3,5.5,18.6,7.4l0,0
			c7.4,2.8,21.2,7.1,38.9,7.6c1.4,0,2.5,0,3.9,0c19.6-0.2,35-5.3,43.3-8.7c1.2,4.4,2.3,13.6,1.8,18.9c-14.3,4.8-28.8,7.4-43.5,7.6
			c-2.1,0-3.9,0-5.8,0c-0.2,0-0.2,0-0.5,0l0,0c-13.8-0.2-27.1-2.5-40.5-6.7c0,0-17.5-6.7-17.5-6.9c-2.8-1.4-5.8-2.8-8.5-4.1
			C530.2,320.7,512.7,298.4,502.5,279.8z M760,277.7c-9.9-18.4-26.9-39.8-55.9-56.1c-2.1-1.2-4.4-2.3-6.4-3.5
			c-0.2,4.4-1.2,12.7-2.5,18.6c0.2,0,0.2,0.2,0.5,0.2c18.6,10.6,33.6,24.2,44.2,40.7c-10.4,16.8-25.1,30.8-43.5,41.4
			c-0.2,0-0.2,0.2-0.5,0.2c1.6,6,2.5,14,3,18.6c2.1-1.2,4.4-2.3,6.4-3.5C733.8,318,750.6,296.1,760,277.7z M607.7,278.8
			c-4.6-6.9-8.7-14-12-21.9c-4.6-10.8-6.7-20.5-7.6-26.5c-5.8,1.4-12,3.9-17,7.4c3.2,16.3,9.2,30.1,15.4,41.2
			c-6.2,11-11.7,25.1-14.7,41.4c5.3,3.2,11.5,5.8,17.3,7.1c0.9-6.2,2.8-15.6,7.1-26.7C599.4,293.1,603.3,285.8,607.7,278.8z
			 M570.9,369.3l23.7,23.2c-4.6-12.9-7.1-26.7-7.6-41.6c0-0.2,0-0.5,0-0.7c-6.7-1.8-11.5-3.7-17.7-6.4c0,2.5,0,4.8,0,7.4
			C569.5,357.8,570,363.7,570.9,369.3L570.9,369.3z M569.3,189.4c-0.7,5.8-1.2,11.5-1.2,17.9c0,2.5,0,5.1,0.2,7.4
			c6-3,11-4.8,17.5-6.7c0-0.2,0-0.5,0-0.7c0.2-14.7,2.3-28.8,6.9-41.6L569.3,189.4z M677.9,278.4c6.4-11.3,12.2-25.5,15.4-42.6l0,0
			c0.5-3,1.8-12.4,2.3-18.6l0,0c0.2-3.2,0.2-6.7,0.2-10.1c-0.5-41.4-16.3-70.6-29.7-87.9c-4.6-6-9.2-10.8-13.3-15l-12.4,12.7
			c3.7,3.7,8.1,8.3,12.2,13.8c16.6,21.6,25.1,47.4,25.3,76.6c0,0.5,0,0.9,0,1.4l0,0c0,0,0,15.2-2.3,22.3l0,0
			c-1.6,10.1-6.4,28.5-19.6,47.6c13.3,18.9,18.4,37.3,20.2,47.2l0,0c2.3,7.1,2.5,22.3,2.5,22.3l0,0c0,0.5,0,0.9,0,1.4
			c0.2,29-7.8,55-24.2,77.1c-4.1,5.5-8.3,10.4-12,14l12.7,12.4c4.1-4.1,8.7-9.2,13.1-15.2c13.1-17.5,28.5-46.9,28.1-88.3
			c0-3.5-0.2-6.9-0.5-10.1l0,0c-0.5-6.2-2.1-15.6-2.5-18.6l0,0C690.5,303.7,684.5,289.7,677.9,278.4z"/>
	</g>
</g>
</svg>
