<?xml version="1.0" encoding="utf-8"?>
<!-- Generator: Adobe Illustrator 18.1.1, SVG Export Plug-In . SVG Version: 6.00 Build 0)  -->
<svg version="1.1"
	 id="svg2985" sodipodi:docname="xTgb4K8TA.jpeg" inkscape:version="0.48.5 r10040" xmlns:dc="http://purl.org/dc/elements/1.1/" xmlns:cc="http://creativecommons.org/ns#" xmlns:inkscape="http://www.inkscape.org/namespaces/inkscape" xmlns:sodipodi="http://sodipodi.sourceforge.net/DTD/sodipodi-0.dtd" xmlns:svg="http://www.w3.org/2000/svg" xmlns:rdf="http://www.w3.org/1999/02/22-rdf-syntax-ns#"
	 xmlns="http://www.w3.org/2000/svg" xmlns:xlink="http://www.w3.org/1999/xlink" x="0px" y="0px" viewBox="-363 164 233 234"
	 enable-background="new -363 164 233 234" xml:space="preserve">
<sodipodi:namedview  inkscape:current-layer="svg2985" inkscape:window-maximized="0" inkscape:window-y="0" inkscape:window-x="0" fit-margin-bottom="0" fit-margin-right="0" inkscape:window-height="480" inkscape:window-width="640" inkscape:pageshadow="2" inkscape:pageopacity="0" id="namedview2987" borderopacity="1" pagecolor="#ffffff" bordercolor="#666666" fit-margin-top="0" gridtolerance="10" objecttolerance="10" inkscape:cy="117" fit-margin-left="0" inkscape:cx="116.5" showgrid="false" guidetolerance="10" inkscape:zoom="1.008547">
	</sodipodi:namedview>
<g id="g3011">
	<path id="path3019" inkscape:connector-curvature="0" fill="none" d="M-363,281V164h116.5H-130v117v117h-116.5H-363V281z"/>
</g>
<path id="path3013" inkscape:connector-curvature="0" fill="#FEF087" d="M-251,393.2c-11.1-8.8-24.2-27-30.3-42.1
	c-1.8-4.5-3.1-8.3-2.8-8.6c0.2-0.2,2.8,0.5,5.7,1.6c2.9,1.1,7.4,2.5,9.9,3c4.4,0.9,4.8,1.4,8.2,7.6c4.5,8.4,13,18,15.3,17.1
	c2.7-1,10.5-11.7,15.3-21c6.3-12.2,9.4-24.9,10.1-41.3l0.6-13.1l7.9-2.5c4.3-1.4,8.1-2.3,8.4-2c0.3,0.3,0.5,5.9,0.5,12.6
	c0,25.8-6.2,47-19.5,67.1c-4.4,6.6-14.7,18-20.5,22.6l-3.7,3L-251,393.2L-251,393.2z M-262.8,346.5c-30-6.6-55.4-29.6-64.8-58.6
	c-1.9-6-4.6-21.2-4.7-26.3c0-0.5,3.7,2.6,8.2,6.8c4.5,4.2,8.5,7.6,8.9,7.6c0.4,0,1.9,3.6,3.4,8c7.2,21.7,27.4,40.2,50.1,46
	c8.5,2.2,24.8,2.6,32.3,0.9c2.4-0.6,4.6-0.8,4.9-0.5c0.8,0.8-3.7,14.4-5.3,16c-1.3,1.3-4,1.5-14.2,1.5
	C-251.1,347.9-259.5,347.3-262.8,346.5z M-204.4,337.2c0.5-1,1.5-5.8,2.2-10.5c1.2-8.5,1.4-8.8,5.5-12.2
	c8.9-7.3,18.4-22.5,21.8-34.9c2.6-9.8,3.1-22.8,1.1-32.5c-2.5-12.2-9.3-26.1-16.6-33.8c-1.2-1.3-2-2.5-1.7-2.8
	c0.3-0.3,4.7-0.7,9.9-1l9.3-0.5l2.2,3.3c18.5,28.3,18.9,66.3,1,95.1c-6.1,9.8-16.4,20.3-26.1,26.6
	C-204.2,339.4-206,340.1-204.4,337.2z M-278.3,320.5c-3.5-1.9-7.7-4.7-9.3-6.2l-2.9-2.8l0.7-13.4c0.8-16.3,3.7-28.6,9.9-41.5
	c4.1-8.7,11.5-20.4,17.1-27c2.8-3.3,2.7-3.3,11.1,4.1c5.4,4.8,5.7,3.6-2.5,13.8c-12.6,15.7-20.5,45.2-18.1,67.5
	c0.5,4.7,0.8,8.6,0.8,8.7C-271.8,323.8-274.8,322.3-278.3,320.5z M-264.7,295.9c-3.2-0.5-6-1-6.2-1.1c-0.3-0.3,2.2-12.9,3.1-15.9
	c0.5-1.5,1-1.5,6.2-0.2c9.1,2.3,28,2,38.5-0.5c15.8-3.9,29.6-10.8,41.4-20.9c3.4-2.9,6.5-5.3,6.8-5.3c0.8,0,0.7,15.1-0.1,19
	c-1.6,7.8-29.5,20.7-52.7,24.5C-237.5,297.1-255.2,297.3-264.7,295.9z M-298.8,283.7c-29.5-15.9-50.6-42.4-58.5-73.3
	c-1.1-4.3-2-9.2-2-11c0-2.9,0.5-3.4,4.2-4.9c9.2-3.7,22.8-5.8,37.6-5.8c7.9,0,14.7,0.4,15.2,0.9c0.5,0.5-1.9,3.8-6.1,8.1l-7,7.2
	l-9.4,1c-12.3,1.4-14.8,2.3-14,5.3c1.8,6.1,4.9,13.8,7.7,18.7c7.1,12.8,21.9,27.7,34.7,35c9.8,5.6,9.2,4.4,6.8,13.8
	c-1.2,4.5-2.4,8.2-2.7,8.2C-292.6,287-295.5,285.5-298.8,283.7z M-224.8,270.4c-7.1-24.6-32.3-49.6-59.2-58.6l-7.2-2.4l2.7-2.5
	c1.5-1.4,5.1-4.1,8.1-6.1c5.3-3.5,5.5-3.6,9-2.1c2,0.8,6.3,3,9.6,4.9c25,14,43.7,35.1,53,59.8l2.6,6.8l-5.3,2.4
	c-2.9,1.3-6.7,2.7-8.4,3.1C-223.1,276.2-223.2,276.1-224.8,270.4z M-155.3,250.8c0-2.4-0.9-7.6-2-11.6l-2-7.3l2.6-5.7
	c3.1-6.8,5.4-13,5.4-14.7c0-2.4-10-4-24.5-3.9c-12.2,0.1-15.2,0.4-23,2.8c-9.6,2.9-23.6,9.1-28.6,12.6l-3,2.2l-6.3-6.1
	c-7.2-6.9-7.4-6.2,2.9-12.5c27.6-16.7,63.1-21.2,93.5-11.8c10,3.1,10.4,3.5,9,10.6c-3.2,16.2-11.8,34.7-21.7,46.8l-2.3,2.8V250.8z
	 M-317.8,245.5c-1.5-1.6-4.4-4.9-6.3-7.3l-3.6-4.3l1.9-5.5c3.2-9.5,11.1-21.1,20.5-30.3c9.4-9.2,15.5-13.3,27.7-18.5
	c24.6-10.6,55.1-8.3,78.8,5.8l7,4.2l-5.5,1.1c-3,0.6-7.9,1.9-10.8,2.9l-5.3,1.8l-8.2-2.7c-11.7-3.9-27-4.6-38.7-1.6
	c-13.7,3.4-24,9.2-34.1,19.1c-7.2,7.1-9.3,10.1-13.2,18c-2.6,5.2-5.3,12-6,15l-1.4,5.5C-315,248.4-317.8,245.5-317.8,245.5z"/>
</svg>
