<?xml version="1.0" encoding="utf-8"?>
<!-- Generator: Adobe Illustrator 17.1.0, SVG Export Plug-In . SVG Version: 6.00 Build 0)  -->
<!DOCTYPE svg PUBLIC "-//W3C//DTD SVG 1.1//EN" "http://www.w3.org/Graphics/SVG/1.1/DTD/svg11.dtd">
<svg version="1.1" id="Layer_1" xmlns="http://www.w3.org/2000/svg" xmlns:xlink="http://www.w3.org/1999/xlink" x="0px" y="0px"
	 viewBox="0 0 64 64" enable-background="new 0 0 64 64" xml:space="preserve">
<g>
	<path fill-rule="evenodd" clip-rule="evenodd" d="M23.7,43l21.7-23.2l2.8,2.8L26.4,45.8L23.7,43z"/>
	<path fill-rule="evenodd" clip-rule="evenodd" d="M16.1,35.3l2.8-2.8L29.2,43l-2.8,2.8L16.1,35.3z"/>
	<g>
		<path d="M32,3c16,0,29,13,29,29c0,16-13,29-29,29C16,61,3,48,3,32C3,16,16,3,32,3 M32,0C14.3,0,0,14.3,0,32c0,17.7,14.3,32,32,32
			c17.7,0,32-14.3,32-32C64,14.3,49.7,0,32,0L32,0z"/>
	</g>
</g>
</svg>
