<?xml version="1.0" encoding="utf-8"?>
<!-- Generator: Adobe Illustrator 18.1.1, SVG Export Plug-In . SVG Version: 6.00 Build 0)  -->
<svg version="1.1" id="imgView" xmlns="http://www.w3.org/2000/svg" xmlns:xlink="http://www.w3.org/1999/xlink" x="0px" y="0px"
	 viewBox="200 47.1 560 465.8" enable-background="new 200 47.1 560 465.8" xml:space="preserve">
<path fill="#FFFFFF" d="M396.7,512.9c-1.8,0-3.6-0.7-4.9-2L202,321.2c-1.3-1.3-2-3.1-2-4.9s0.7-3.6,2-4.9L456.1,57.3
	c1.3-1.3,3.1-2.1,5-2c1.9,0,3.7,0.8,5,2.2l0.4,0.4c0.9,0.9,1.7,1.8,2.6,2.7c4.4,4.4,9.2,8.5,14.2,12.2c0.1,0.1,0.2,0.1,0.3,0.2
	C499,84.3,517.1,91.8,536,94.9c0.2,0,0.5,0.1,0.7,0.1c17.1,2.7,34.8,1.7,51.5-2.8c0.2-0.1,0.4-0.1,0.6-0.2
	c17.9-5,34.1-13.8,48.1-26.1c0.2-0.1,0.3-0.3,0.5-0.4c1.8-1.6,3.5-3.2,5.1-4.9c3.3-3.3,6.5-6.9,9.6-10.9c1.2-1.6,3.1-2.5,5-2.6
	c2-0.1,3.9,0.6,5.3,2l95.5,95.5c1.3,1.3,2,3.1,2,4.9s-0.7,3.6-2,4.9L401.6,510.9C400.2,512.2,398.4,512.9,396.7,512.9z M216.8,316.2
	l179.9,179.9l346.6-346.6L658,64.3c-1.9,2.1-3.8,4.2-5.7,6.1c-0.3,0.3-0.5,0.6-0.8,0.8l14.3,14.3c2.7,2.7,2.7,7.1,0,9.8l-39.2,39.2
	c-1.3,1.3-3.1,2-4.9,2s-3.6-0.7-4.9-2l-28.2-28.2c-4.2,1-8.4,1.9-12.6,2.5l33.1,33.2c2.7,2.7,2.7,7.1,0,9.8l-39.2,39.2
	c-1.3,1.3-3.1,2-4.9,2c-1.8,0-3.6-0.7-4.9-2l-39.2-39.2c-2.7-2.7-2.7-7.1,0-9.8l31.7-31.7c-5.1-0.1-10.3-0.5-15.3-1.2l-24.6,24.6
	c-2.7,2.7-7.1,2.7-9.8,0l-39.2-39.2c-1.3-1.3-2-3.1-2-4.9c0-1.8,0.7-3.6,2-4.9l5.5-5.5c-2.8-2.3-5.5-4.7-8.1-7.2L216.8,316.2z
	 M535.6,147l29.4,29.4l29.4-29.4L565,117.6L535.6,147z M603.6,101.8l18.1,18.1L651,90.5l-10-10C629.7,89.6,617.1,96.8,603.6,101.8z
	 M478.3,89.7l29.4,29.4l13.2-13.2c-14.4-3.8-28.2-10-40.6-18.2L478.3,89.7z M396,476.7c-1.8,0-3.6-0.7-4.9-2l-39.2-39.2
	c-2.7-2.7-2.7-7.1,0-9.8l39.2-39.2c1.3-1.3,3.1-2,4.9-2s3.6,0.7,4.9,2l39.2,39.2c1.3,1.3,2,3.1,2,4.9c0,1.8-0.7,3.6-2,4.9
	l-39.2,39.2C399.5,476.1,397.8,476.7,396,476.7z M366.6,430.6L396,460l29.4-29.4L396,401.2L366.6,430.6z M452.6,420.2
	c-1.8,0-3.6-0.7-4.9-2l-39.2-39.2c-2.7-2.7-2.7-7.1,0-9.8l39.2-39.2c2.7-2.7,7.1-2.7,9.8,0l39.2,39.2c1.3,1.3,2,3.1,2,4.9
	s-0.7,3.6-2,4.9l-39.2,39.2C456.1,419.5,454.3,420.2,452.6,420.2z M423.2,374l29.4,29.4l29.4-29.4l-29.4-29.4L423.2,374z
	 M338.7,419.4c-1.8,0-3.6-0.7-4.9-2l-39.2-39.2c-1.3-1.3-2-3.1-2-4.9s0.7-3.6,2-4.9l39.2-39.2c2.7-2.7,7.1-2.7,9.8,0l39.2,39.2
	c2.7,2.7,2.7,7.1,0,9.8l-39.2,39.2C342.3,418.7,340.5,419.4,338.7,419.4z M309.3,373.3l29.4,29.4l29.4-29.4l-29.4-29.4L309.3,373.3z
	 M509.1,363.6c-1.8,0-3.6-0.7-4.9-2L465,322.3c-1.3-1.3-2-3.1-2-4.9c0-1.8,0.7-3.6,2-4.9l39.2-39.2c2.7-2.7,7.1-2.7,9.8,0l39.2,39.2
	c2.7,2.7,2.7,7.1,0,9.8L514,361.6C512.7,362.9,511,363.6,509.1,363.6z M479.8,317.4l29.4,29.4l29.4-29.4l-29.4-29.4L479.8,317.4z
	 M395.3,362.9c-1.8,0-3.6-0.7-4.9-2l-39.2-39.2c-2.7-2.7-2.7-7.1,0-9.8l39.2-39.2c1.3-1.3,3.1-2,4.9-2s3.6,0.7,4.9,2l39.2,39.2
	c2.7,2.7,2.7,7.1,0,9.8l-39.2,39.2C398.9,362.1,397.1,362.9,395.3,362.9z M365.9,316.7l29.4,29.4l29.4-29.4l-29.4-29.4L365.9,316.7z
	 M281.4,362.1c-1.8,0-3.6-0.7-4.9-2l-39.2-39.2c-2.7-2.7-2.7-7.1,0-9.8l39.2-39.2c2.7-2.7,7.1-2.7,9.8,0l39.2,39.2
	c2.7,2.7,2.7,7.1,0,9.8l-39.2,39.2C285,361.5,283.2,362.1,281.4,362.1z M252,316l29.4,29.4l29.4-29.4l-29.4-29.4L252,316z
	 M565.7,307c-1.8,0-3.6-0.7-4.9-2l-39.2-39.2c-2.7-2.7-2.7-7.1,0-9.8l39.2-39.2c1.3-1.3,3.1-2,4.9-2c1.8,0,3.6,0.7,4.9,2l39.2,39.2
	c2.7,2.7,2.7,7.1,0,9.8L570.6,305C569.3,306.3,567.5,307,565.7,307z M536.3,260.9l29.4,29.4l29.4-29.4l-29.4-29.4L536.3,260.9z
	 M451.8,306.3c-1.8,0-3.6-0.7-4.9-2l-39.2-39.2c-2.7-2.7-2.7-7.1,0-9.8l39.2-39.2c1.3-1.3,3.1-2,4.9-2s3.6,0.7,4.9,2l39.2,39.2
	c2.7,2.7,2.7,7.1,0,9.8l-39.2,39.2C455.4,305.6,453.7,306.3,451.8,306.3z M422.5,260.1l29.4,29.4l29.4-29.4l-29.4-29.4L422.5,260.1z
	 M338,305.6c-1.8,0-3.6-0.7-4.9-2l-39.2-39.2c-2.7-2.7-2.7-7.1,0-9.8l39.2-39.2c1.3-1.3,3.1-2,4.9-2s3.6,0.7,4.9,2l39.2,39.2
	c2.7,2.7,2.7,7.1,0,9.8l-39.2,39.2C341.5,304.9,339.7,305.6,338,305.6z M308.6,259.4l29.4,29.4l29.4-29.4L338,230L308.6,259.4z
	 M622.3,250.4c-1.8,0-3.6-0.7-4.9-2l-39.2-39.2c-2.7-2.7-2.7-7.1,0-9.8l39.2-39.2c1.3-1.3,3.1-2,4.9-2s3.6,0.7,4.9,2l39.2,39.2
	c2.7,2.7,2.7,7.1,0,9.8l-39.2,39.2C625.8,249.8,624.1,250.4,622.3,250.4z M592.9,204.3l29.4,29.4l29.4-29.4l-29.4-29.4L592.9,204.3z
	 M508.4,249.7c-1.8,0-3.6-0.7-4.9-2l-39.2-39.2c-2.7-2.7-2.7-7.1,0-9.8l39.2-39.2c1.3-1.3,3.1-2,4.9-2c1.8,0,3.6,0.7,4.9,2
	l39.2,39.2c2.7,2.7,2.7,7.1,0,9.8l-39.2,39.2C512,249,510.3,249.7,508.4,249.7z M479,203.6l29.4,29.4l29.4-29.4l-29.4-29.4
	L479,203.6z M394.5,249c-1.8,0-3.6-0.7-4.9-2l-39.2-39.2c-2.7-2.7-2.7-7.1,0-9.8l39.2-39.2c2.7-2.7,7.1-2.7,9.8,0l39.2,39.2
	c2.7,2.7,2.7,7.1,0,9.8L399.5,247C398.2,248.3,396.4,249,394.5,249z M365.2,202.8l29.4,29.4l29.4-29.4l-29.4-29.4L365.2,202.8z
	 M678.9,193.9c-1.8,0-3.6-0.7-4.9-2l-39.2-39.2c-2.7-2.7-2.7-7.1,0-9.8l39.2-39.2c2.7-2.7,7.1-2.7,9.8,0l39.2,39.2
	c2.7,2.7,2.7,7.1,0,9.8l-39.2,39.2C682.5,193.1,680.7,193.9,678.9,193.9z M649.5,147.7l29.4,29.4l29.4-29.4l-29.4-29.4L649.5,147.7z
	 M451.1,192.4c-1.8,0-3.6-0.7-4.9-2L407,151.2c-2.7-2.7-2.7-7.1,0-9.8l39.2-39.2c2.7-2.7,7.1-2.7,9.8,0l39.2,39.2
	c1.3,1.3,2,3.1,2,4.9c0,1.8-0.7,3.6-2,4.9L456,190.4C454.7,191.7,452.9,192.4,451.1,192.4z M421.7,146.3l29.4,29.4l29.4-29.4
	l-29.4-29.4L421.7,146.3z"/>
</svg>
