<?xml version="1.0" encoding="utf-8"?>
<!-- Generated by IcoMoon.io -->
<!DOCTYPE svg PUBLIC "-//W3C//DTD SVG 1.1//EN" "http://www.w3.org/Graphics/SVG/1.1/DTD/svg11.dtd">
<svg version="1.1" xmlns="http://www.w3.org/2000/svg" xmlns:xlink="http://www.w3.org/1999/xlink" width="10" height="32" viewBox="0 0 10 32">
<path fill="#444444" d="M9.532 32h-0.851c-1.021 0-1.702 0-2.383-0.17s-1.362-0.681-1.872-1.362c-0.511-0.681-0.681-1.362-0.851-2.213s-0.17-2.383-0.17-4.426c0-1.532 0-2.553-0.17-3.404s-0.511-1.702-1.021-2.213c-0.511-0.511-1.192-0.851-2.213-0.851v-2.723c1.021 0 1.702-0.34 2.213-0.851s0.851-1.362 1.021-2.213c0.17-0.851 0.17-1.872 0.17-3.404 0-2.043 0-3.574 0.17-4.426s0.34-1.532 0.851-2.213c0.511-0.681 1.192-1.192 1.872-1.362s1.362-0.17 2.383-0.17h0.851v2.553h-0.511c-1.191 0-1.872 0.17-2.213 0.511-0.511 0.511-0.681 0.681-0.681 1.192v4.255c0 2.553-0.34 4.255-0.851 5.277s-1.532 1.702-2.553 2.213c1.021 0.511 2.043 1.192 2.553 2.213s0.851 2.723 0.851 5.277v4.255c0 0.511 0.17 0.681 0.681 1.192 0.34 0.34 1.021 0.511 2.213 0.511h0.511v2.553z"></path>
</svg>
