<?xml version="1.0" encoding="utf-8"?>
<!-- Generator: Adobe Illustrator 17.1.0, SVG Export Plug-In . SVG Version: 6.00 Build 0)  -->
<!DOCTYPE svg PUBLIC "-//W3C//DTD SVG 1.1//EN" "http://www.w3.org/Graphics/SVG/1.1/DTD/svg11.dtd">
<svg version="1.1" id="Layer_1" xmlns="http://www.w3.org/2000/svg" xmlns:xlink="http://www.w3.org/1999/xlink" x="0px" y="0px"
	 viewBox="0 0 16 16" enable-background="new 0 0 16 16" xml:space="preserve">
<g>
	<path d="M6,2.5c0.7-0.2,1.3-0.3,2-0.3s1.4,0.1,2,0.3s1.3,0.5,1.9,0.8c0.6,0.3,1.1,0.7,1.6,1.1c0.5,0.4,0.9,0.8,1.2,1.3
		C15,6,15.3,6.4,15.5,6.9c0.2,0.4,0.3,0.8,0.3,1.1c0,0.3-0.1,0.7-0.3,1.1c-0.2,0.4-0.4,0.9-0.8,1.3c-0.3,0.4-0.8,0.9-1.2,1.3
		c-0.5,0.4-1,0.8-1.6,1.1c-0.6,0.3-1.2,0.6-1.9,0.8c-0.7,0.2-1.4,0.3-2,0.3s-1.3-0.1-2-0.3c-0.7-0.2-1.3-0.4-1.8-0.8S3,12,2.5,11.6
		c-0.5-0.4-0.9-0.9-1.2-1.3C1,9.9,0.7,9.5,0.5,9.1C0.3,8.7,0.2,8.3,0.2,8s0.1-0.7,0.3-1.1C0.7,6.5,1,6.1,1.3,5.6S2,4.8,2.5,4.3
		s1-0.8,1.6-1.1C4.7,2.9,5.3,2.7,6,2.5z M6.3,12.1c0.6,0.2,1.2,0.2,1.7,0.2s1.1-0.1,1.7-0.2s1.1-0.4,1.5-0.7
		c0.4-0.3,0.9-0.6,1.3-0.9c0.4-0.4,0.8-0.7,1-1s0.4-0.6,0.6-0.9c0.1-0.3,0.2-0.5,0.2-0.7s-0.1-0.3-0.2-0.7C14,7,13.8,6.7,13.5,6.4
		c-0.2-0.3-0.6-0.7-1-1c-0.4-0.3-0.8-0.7-1.3-0.9S10.3,4,9.7,3.8S8.6,3.5,8,3.5S6.8,3.6,6.3,3.8C5.7,4,5.2,4.2,4.8,4.5
		C4.3,4.7,3.9,5.1,3.5,5.4c-0.4,0.3-0.8,0.7-1,1S2,7,1.9,7.3C1.7,7.6,1.6,7.8,1.6,8s0.1,0.3,0.2,0.7C2,8.9,2.2,9.2,2.5,9.5
		c0.2,0.3,0.6,0.7,1,1c0.4,0.4,0.8,0.6,1.3,0.9C5.2,11.8,5.7,12,6.3,12.1z"/>
</g>
<path d="M8,4.7C6.2,4.7,4.7,6.2,4.7,8s1.5,3.3,3.3,3.3s3.3-1.5,3.3-3.3S9.8,4.7,8,4.7z M8,10c-1.1,0-2-0.9-2-2s0.9-2,2-2s2,0.9,2,2
	S9.1,10,8,10z"/>
</svg>
