<?xml version="1.0" encoding="utf-8"?>
<!-- Generator: Adobe Illustrator 17.1.0, SVG Export Plug-In . SVG Version: 6.00 Build 0)  -->
<!DOCTYPE svg PUBLIC "-//W3C//DTD SVG 1.1//EN" "http://www.w3.org/Graphics/SVG/1.1/DTD/svg11.dtd">
<svg version="1.1" id="Layer_1" xmlns="http://www.w3.org/2000/svg" xmlns:xlink="http://www.w3.org/1999/xlink" x="0px" y="0px"
	 viewBox="0 0 64 64" enable-background="new 0 0 64 64" xml:space="preserve">
<g>
	<path d="M60.8,6.8v50.4c0,1-0.4,1.8-1.1,2.5c-0.7,0.7-1.6,1.1-2.5,1.1H42.8V38.4H50l1.2-8.3h-8.4v-6.5c0-1.2,0.3-2.1,0.9-2.8
		c0.6-0.6,1.5-1,2.7-1h5.4v-7.5c-1.6-0.3-3.6-0.4-5.9-0.4c-3.9,0-6.8,1-8.8,2.9c-2,2-3.1,4.6-3.1,8v7.2h-7.2v8.3H34v22.4H6.8
		c-1,0-1.8-0.4-2.5-1.1s-1.1-1.6-1.1-2.5V6.8c0-1,0.4-1.8,1.1-2.5C5,3.6,5.8,3.2,6.8,3.2h50.4c1,0,1.8,0.4,2.5,1.1
		C60.4,5,60.8,5.8,60.8,6.8z"/>
</g>
</svg>
