<?xml version="1.0" encoding="utf-8"?>
<!-- Generator: Adobe Illustrator 17.1.0, SVG Export Plug-In . SVG Version: 6.00 Build 0)  -->
<!DOCTYPE svg PUBLIC "-//W3C//DTD SVG 1.1//EN" "http://www.w3.org/Graphics/SVG/1.1/DTD/svg11.dtd">
<svg version="1.1" id="Layer_1" xmlns="http://www.w3.org/2000/svg" xmlns:xlink="http://www.w3.org/1999/xlink" x="0px" y="0px"
	 viewBox="0 0 64 64" enable-background="new 0 0 64 64" xml:space="preserve">
<g>
	<path d="M51.4,23.4v-7.3h0v-0.8h-26h-0.9l-0.3-0.8l-2-5H1V46c0,2.1,0.4,3.8,1.1,5c0.7,1.3,1.6,2.2,2.6,2.8l0,0l0,0
		c0.8,0.5,1.8,0.7,3.1,0.7h37.7c1.7,0,2.9-0.4,3.8-1.1c1-0.8,1.7-1.9,2.4-3.3c0.3-0.6,2.1-4.8,5.3-12.5c4.4-10.5,4.9-11.8,5-12
		l0.9-2.2L51.4,23.4L51.4,23.4z M22.2,23.4L10.9,49.1c-0.3,0.8-1,1.4-1.8,1.8c-0.5,0.2-1.1,0.4-1.6,0.4c-0.3,0-0.5,0-0.8-0.1
		C6,51,4.3,50.3,4.3,47.7V14v-1.3h1.3h13.6H20l0.3,0.8l2,5h26.2v4.9H22.2z"/>
</g>
</svg>
