<?xml version="1.0" encoding="utf-8"?>
<!-- Generator: Adobe Illustrator 18.1.1, SVG Export Plug-In . SVG Version: 6.00 Build 0)  -->
<svg version="1.1" id="imgView" xmlns="http://www.w3.org/2000/svg" xmlns:xlink="http://www.w3.org/1999/xlink" x="0px" y="0px"
	 viewBox="200 0 560 560" enable-background="new 200 0 560 560" xml:space="preserve">
<g>
	<path fill="#FFFFFF" d="M678,82c52.9,52.9,82,123.2,82,198c0,74.8-29.1,145.1-82,198c-52.9,52.9-123.2,82-198,82
		s-145.1-29.1-198-82c-52.9-52.9-82-123.2-82-198c0-74.8,29.1-145.1,82-198S405.2,0,480,0S625.1,29.1,678,82z M653.2,453.2
		c34.5-34.5,57.4-77.4,66.9-124.2c-7.4,10.8-14.4,14.9-18.8-9.4c-4.5-39.6-40.9-14.3-63.7-28.4c-24.1,16.2-78.2-31.5-69,22.3
		c14.2,24.3,76.6-32.5,45.5,18.9c-19.8,35.9-72.5,115.4-65.7,156.5c0.9,60-61.3,12.5-82.8-7.4c-14.4-39.9-4.9-109.6-42.6-129.1
		c-40.9-1.8-76-5.5-91.9-51.2c-9.5-32.7,10.2-81.4,45.2-88.9c51.3-32.2,69.7,37.8,117.8,39.1c14.9-15.6,55.7-20.6,59.1-38.1
		c-31.6-5.6,40.1-26.6-3-38.5c-23.8,2.8-39.1,24.6-26.5,43.2c-46.1,10.7-47.5-66.7-91.8-42.2c-1.1,38.6-72.3,12.5-24.6,4.7
		c16.4-7.2-26.7-27.9-3.4-24.1c11.4-0.6,49.9-14.1,39.5-23.2c21.4-13.3,39.5,31.9,60.5-1c15.2-25.3-6.4-30-25.3-17.1
		c-10.7-12,18.9-37.9,45-49.1c8.7-3.7,17-5.8,23.4-5.2c13.2,15.2,37.5,17.8,38.8-1.8C553.1,43.2,517.2,35,480,35
		c-53.4,0-104.2,17-146.2,48.3c11.3,5.2,17.7,11.6,6.8,19.8c-8.5,25.2-42.7,59-72.9,54.2c-15.6,27-25.9,56.7-30.3,87.8
		c25.2,8.3,31,24.9,25.6,30.4c-12.8,11.2-20.7,27.1-24.8,44.5c8.2,50.2,31.8,96.5,68.5,133.2C353,499.5,414.6,525,480,525
		C545.4,525,607,499.5,653.2,453.2z"/>
</g>
</svg>
