<?xml version="1.0" encoding="utf-8"?>
<!-- Generator: Adobe Illustrator 17.1.0, SVG Export Plug-In . SVG Version: 6.00 Build 0)  -->
<!DOCTYPE svg PUBLIC "-//W3C//DTD SVG 1.1//EN" "http://www.w3.org/Graphics/SVG/1.1/DTD/svg11.dtd">
<svg version="1.1" id="Layer_1" xmlns="http://www.w3.org/2000/svg" xmlns:xlink="http://www.w3.org/1999/xlink" x="0px" y="0px"
	 viewBox="0 0 64 64" enable-background="new 0 0 64 64" xml:space="preserve">
<g>
	<path d="M28.2,36.3c2,1.4,3.3,2.9,4.1,4.3c0.8,1.5,1.2,3.3,1.2,5.5c0,1.4-0.3,2.7-1,4c-0.7,1.3-1.6,2.4-2.8,3.5
		c-1.2,1-2.8,1.8-4.7,2.5c-1.9,0.6-4,0.9-6.4,0.9c-2.8,0-5.4-0.4-7.7-1.1c-2.3-0.7-4.2-1.7-5.6-3.1s-2.1-2.9-2.1-4.7
		c0-2.8,1.4-5.4,4.3-7.6c2.9-2.2,6.4-3.3,10.4-3.3h2.6c-1.3-1.3-2-2.7-2-4.1c0-1,0.2-2,0.7-2.8c-0.3,0-0.8,0.1-1.4,0.1
		c-3.4,0-6.1-1-8.3-3.1c-2.1-2.1-3.2-4.7-3.2-7.8c0-1.9,0.6-3.8,1.9-5.5c1.2-1.7,2.9-3.1,4.9-4.1c2-1,4.2-1.5,6.4-1.5h15.1l-3.4,2.4
		h-4.8c1.5,0.6,2.7,1.7,3.6,3.3c0.9,1.6,1.3,3.4,1.3,5.4c0,3.1-1.4,5.7-4.2,7.8c-1.2,1-2,1.7-2.3,2.3c-0.4,0.6-0.5,1.2-0.5,2.1
		c0,0.6,0.4,1.4,1.3,2.4C26.4,34.9,27.3,35.7,28.2,36.3z M18.6,54.5c3.8,0,6.6-0.7,8.3-2.2c1.7-1.4,2.6-3.3,2.6-5.7
		c0-0.3,0-0.8-0.1-1.5c-0.1-0.4-0.3-0.8-0.5-1.2c-0.2-0.4-0.4-0.7-0.6-0.9c-0.2-0.2-0.5-0.6-1-1s-0.9-0.7-1.1-0.8
		c-0.2-0.1-0.7-0.5-1.4-1c-0.7-0.5-1.2-0.8-1.4-1c-1.1-0.3-2.3-0.5-3.7-0.6c-1.9,0-3.7,0.4-5.4,1.1s-3,1.7-4,2.9
		c-1,1.2-1.5,2.5-1.5,3.9c0,2.2,0.9,4.1,2.8,5.7C13.4,53.8,15.7,54.5,18.6,54.5z M20.1,28.7c1.9,0.1,3.5-0.8,4.6-2.5
		c1.1-1.8,1.5-3.9,1.2-6.5c-0.3-2.5-1.3-4.7-2.9-6.5c-1.6-1.8-3.4-2.7-5.4-2.8c-1.9-0.1-3.5,0.8-4.6,2.5c-1.1,1.7-1.5,3.9-1.2,6.4
		c0.3,2.6,1.3,4.7,2.9,6.6C16.4,27.7,18.2,28.7,20.1,28.7z M60.8,16.7v2.4h-9.6v9.6h-2.4v-9.6h-9.6v-2.4h9.6V7.1h2.4v9.6H60.8z"/>
</g>
</svg>
