<?xml version="1.0" encoding="utf-8"?>
<!-- Generator: Adobe Illustrator 17.1.0, SVG Export Plug-In . SVG Version: 6.00 Build 0)  -->
<!DOCTYPE svg PUBLIC "-//W3C//DTD SVG 1.1//EN" "http://www.w3.org/Graphics/SVG/1.1/DTD/svg11.dtd">
<svg version="1.1" id="Layer_1" xmlns="http://www.w3.org/2000/svg" xmlns:xlink="http://www.w3.org/1999/xlink" x="0px" y="0px"
	 viewBox="0 0 64 64" enable-background="new 0 0 64 64" xml:space="preserve">
<g>
	<g>
		<path d="M52,31.9v6.3c0,0.5-0.4,0.9-0.9,0.8c-0.4,0-0.8-0.4-0.8-0.9v-5.3c0-0.1-0.1-0.3-0.3-0.3"/>
	</g>
	<g>
		<path d="M51.2,47.8c-0.3,0-0.6-0.2-0.8-0.5c0,0,0,0,0,0c0,0-0.3-0.3-1.3-0.7c-0.3-0.1-0.5-0.4-0.5-0.8v-6.6c0-0.5,0.4-0.8,0.8-0.8
			h3.5c0.5,0,0.8,0.4,0.8,0.8v6.6c0,0.3-0.2,0.6-0.5,0.8c-1.1,0.5-1.4,0.8-1.4,0.8C51.7,47.6,51.5,47.8,51.2,47.8"/>
		<path d="M44.2,33.7V41c-6.3,3.7-8.8,4.4-12.6,4.4c-3.8,0-6.2-0.8-12.6-4.4v-7l-2.4-0.5v7.9c0,0.3,0.1,0.5,0.3,0.7
			c6,4.8,10.4,5.5,14.7,5.5s8.7-0.7,14.7-5.5c0.2-0.2,0.3-0.4,0.3-0.7v-8.2L44.2,33.7z"/>
	</g>
	<g>
		<path d="M62.4,26.3l-30.1-9.9c-0.1,0-0.7-0.2-0.7-0.2c-0.1,0-0.8,0.2-0.8,0.2L1.6,27.2c-0.8,0.2-0.8,1.3-0.1,1.6L31.3,39
			c0.1,0,0.2,0.1,0.3,0.1c0.1,0,0.2,0,0.3-0.1l18.4-6.6L50,32.6l-17-5.1c-0.4,0.1-0.9,0.2-1.5,0.2c-1.6,0-2.6-0.6-2.6-1.5
			c0-0.9,1-1.5,2.6-1.5c1.5,0,2.5,0.5,2.6,1.3l17.2,5.2c0.4,0.1,0.6,0.3,0.6,0.7l10.5-4C63.2,27.6,63.2,26.6,62.4,26.3"/>
		<polygon points="52,31.9 52,31.9 50.3,32.5 		"/>
	</g>
</g>
</svg>
