<?xml version="1.0" encoding="utf-8"?>
<!-- Generator: Adobe Illustrator 17.1.0, SVG Export Plug-In . SVG Version: 6.00 Build 0)  -->
<!DOCTYPE svg PUBLIC "-//W3C//DTD SVG 1.1//EN" "http://www.w3.org/Graphics/SVG/1.1/DTD/svg11.dtd">
<svg version="1.1" id="Layer_1" xmlns="http://www.w3.org/2000/svg" xmlns:xlink="http://www.w3.org/1999/xlink" x="0px" y="0px"
	 viewBox="0 0 64 64" enable-background="new 0 0 64 64" xml:space="preserve">
<g id="Layer_2">
</g>
<g id="Layer_1_1_">
	<g>
		<path fill="#0B0506" d="M54.6,26H38.8c-0.4,0-0.8-0.3-0.8-0.8c0-0.4,0.3-0.8,0.8-0.8h15.8c0.4,0,0.8,0.3,0.8,0.8
			C55.4,25.7,55,26,54.6,26z"/>
		<path fill="#0B0506" d="M54.6,30.7H38.8c-0.4,0-0.8-0.3-0.8-0.8s0.3-0.8,0.8-0.8h15.8c0.4,0,0.8,0.3,0.8,0.8S55,30.7,54.6,30.7z"
			/>
		<path fill="#0B0506" d="M54.6,35.4H38.8c-0.4,0-0.8-0.3-0.8-0.8c0-0.4,0.3-0.8,0.8-0.8h15.8c0.4,0,0.8,0.3,0.8,0.8
			C55.4,35,55,35.4,54.6,35.4z"/>
		<path fill="#0B0506" d="M54.6,40H38.8c-0.4,0-0.8-0.3-0.8-0.8c0-0.4,0.3-0.8,0.8-0.8h15.8c0.4,0,0.8,0.3,0.8,0.8
			C55.4,39.7,55,40,54.6,40z"/>
		<g>
			<path fill="#0B0506" d="M59.5,11.5h-55C2.6,11.5,1,13.1,1,15v34c0,1.9,1.6,3.5,3.5,3.5h55c1.9,0,3.5-1.6,3.5-3.5V15
				C63,13.1,61.4,11.5,59.5,11.5z M26.2,40.4c0,0.2-0.2,0.4-0.4,0.4H8.9c-0.2,0-0.4-0.2-0.4-0.4v-0.7c0-3.7,6.6-2.9,6.6-5.9
				c0,0-2.2-2.2-2.2-6.2c0-2.4,2-4.4,4.4-4.4c2.4,0,4.4,2,4.4,4.4c0,4-2.2,6.2-2.2,6.2c0,2.9,6.6,2.2,6.6,5.9V40.4z M60.7,49
				c0,0.6-0.5,1.2-1.2,1.2H32.9V13.8h26.6c0.6,0,1.2,0.5,1.2,1.2L60.7,49L60.7,49z"/>
		</g>
	</g>
</g>
</svg>
