<?xml version="1.0" encoding="utf-8"?>
<!-- Generator: Adobe Illustrator 17.1.0, SVG Export Plug-In . SVG Version: 6.00 Build 0)  -->
<!DOCTYPE svg PUBLIC "-//W3C//DTD SVG 1.1//EN" "http://www.w3.org/Graphics/SVG/1.1/DTD/svg11.dtd">
<svg version="1.1" id="Layer_1" xmlns="http://www.w3.org/2000/svg" xmlns:xlink="http://www.w3.org/1999/xlink" x="0px" y="0px"
	 viewBox="0 0 64 64" enable-background="new 0 0 64 64" xml:space="preserve">
<path d="M32,0C14.3,0,0,14.3,0,32s14.3,32,32,32s32-14.3,32-32S49.7,0,32,0z M35,45.6c0,1.7-1.3,3-3,3c-1.7,0-3-1.3-3-3V27.7
	c0-1.7,1.3-3,3-3c1.7,0,3,1.3,3,3V45.6z M32,20.5c-1.7,0-3-1.3-3-3s1.3-3,3-3s3,1.3,3,3S33.7,20.5,32,20.5z"/>
</svg>
