<?xml version="1.0" encoding="utf-8"?>
<!-- Generator: Adobe Illustrator 17.1.0, SVG Export Plug-In . SVG Version: 6.00 Build 0)  -->
<!DOCTYPE svg PUBLIC "-//W3C//DTD SVG 1.1//EN" "http://www.w3.org/Graphics/SVG/1.1/DTD/svg11.dtd">
<svg version="1.1" id="Layer_1" xmlns="http://www.w3.org/2000/svg" xmlns:xlink="http://www.w3.org/1999/xlink" x="0px" y="0px"
	 viewBox="0 0 64 64" enable-background="new 0 0 64 64" xml:space="preserve">
<g>
	<path d="M62.1,18.1C61.5,17.7,49.3,10,32.7,4c-0.4-0.2-1-0.2-1.4,0C14.7,10,2.5,17.9,1.9,18.1c-0.6,0.4-1,1-1,1.7v4.1
		c0,1.2,1,1.9,2.1,1.9h4.1v22.1h12.4V25.9h6.2v22.1h12.4V25.9h6.2v22.1h12.4V25.9h4.1c1.2,0,2.1-1,2.1-1.9v-4.1
		C63.1,19.1,62.7,18.5,62.1,18.1z M59,52H5.2c-2.3,0-4.1,1.7-4.1,4.1c0,2.1,1.9,4.1,4.1,4.1h53.6c2.3,0,4.1-1.7,4.1-4.1
		C63.1,53.8,61.1,52,59,52z"/>
</g>
</svg>
