<?xml version="1.0" encoding="utf-8"?>
<!-- Generator: Adobe Illustrator 17.1.0, SVG Export Plug-In . SVG Version: 6.00 Build 0)  -->
<!DOCTYPE svg PUBLIC "-//W3C//DTD SVG 1.1//EN" "http://www.w3.org/Graphics/SVG/1.1/DTD/svg11.dtd">
<svg version="1.1" id="Layer_1" xmlns="http://www.w3.org/2000/svg" xmlns:xlink="http://www.w3.org/1999/xlink" x="0px" y="0px"
	 viewBox="0 0 64 64" enable-background="new 0 0 64 64" xml:space="preserve">
<g>
	<path d="M11.3,63c0.8,0,1.4-0.6,1.4-1.4v-6.4H19c0.8,0,1.4-0.6,1.4-1.4v-6.4h7.2c0.4,0,0.8-0.2,1-0.4l8.5-8.5
		c2.1,0.8,4.3,1.2,6.6,1.2C54.3,39.7,63,31,63,20.4S54.3,1,43.6,1S24.3,9.7,24.3,20.4c0,2.3,0.4,4.5,1.2,6.6l-24,24
		C1.2,51.2,1,51.6,1,52v9.7C1,62.4,1.6,63,2.4,63H11.3z M47.5,10.7c3.3,0,5.8,2.5,5.8,5.8s-2.5,5.8-5.8,5.8s-5.8-2.5-5.8-5.8
		S44.2,10.7,47.5,10.7z"/>
</g>
</svg>
