<?xml version="1.0" encoding="utf-8"?>
<!-- Generator: Adobe Illustrator 17.1.0, SVG Export Plug-In . SVG Version: 6.00 Build 0)  -->
<!DOCTYPE svg PUBLIC "-//W3C//DTD SVG 1.1//EN" "http://www.w3.org/Graphics/SVG/1.1/DTD/svg11.dtd">
<svg version="1.1" id="Layer_1" xmlns="http://www.w3.org/2000/svg" xmlns:xlink="http://www.w3.org/1999/xlink" x="0px" y="0px"
	 viewBox="0 0 64 64" enable-background="new 0 0 64 64" xml:space="preserve">
<g>
	<g>
		<path d="M55,32v27c0,2.2-1.8,4-4,4H12.5c-2.2,0-4-1.8-4-4V32c0-2.2,1.8-4,4-4h4V16.5C16.5,8.1,23.6,1,32,1s15.5,7.1,15.5,15.5V28
			h4C53.7,28,55,29.8,55,32z M24,28h15.5V16.5c0-4.4-3.5-8-8-8s-7.5,3.5-7.5,8V28z"/>
	</g>
</g>
</svg>
