<?xml version="1.0" encoding="utf-8"?>
<!-- Generator: Adobe Illustrator 17.1.0, SVG Export Plug-In . SVG Version: 6.00 Build 0)  -->
<!DOCTYPE svg PUBLIC "-//W3C//DTD SVG 1.1//EN" "http://www.w3.org/Graphics/SVG/1.1/DTD/svg11.dtd">
<svg version="1.1" id="Layer_1" xmlns="http://www.w3.org/2000/svg" xmlns:xlink="http://www.w3.org/1999/xlink" x="0px" y="0px"
	 viewBox="0 0 64 64" enable-background="new 0 0 64 64" xml:space="preserve">
<g>
	<path d="M3.8,10h56.3c1.6,0,2.8,1.3,2.8,2.8v2.9L40.8,35.5c-1.5,1-4.5,3.4-8.1,3.4s-6.6-2.3-8.1-3.4L1,14.7v-1.9
		C1,11.3,2.2,10,3.8,10z M11.3,48.4h41.3h1c2.1,0,3.8-1.6,3.8-3.8V18.8l5.6-4.7v37.1c0,1.6-1.3,2.8-2.8,2.8H3.8
		C2.2,54,1,52.7,1,51.2V13.1l5.6,4.7v27c0,2.1,1.6,3.8,3.8,3.8h0.9V48.4z"/>
</g>
</svg>
