<?xml version="1.0" encoding="utf-8"?>
<!-- Generator: Adobe Illustrator 18.1.1, SVG Export Plug-In . SVG Version: 6.00 Build 0)  -->
<!DOCTYPE svg PUBLIC "-//W3C//DTD SVG 1.1//EN" "http://www.w3.org/Graphics/SVG/1.1/DTD/svg11.dtd">
<svg version="1.1" id="Layer_1" xmlns="http://www.w3.org/2000/svg" xmlns:xlink="http://www.w3.org/1999/xlink" x="0px" y="0px"
	 viewBox="0 0 255.4 255.4" enable-background="new 0 0 255.4 255.4" xml:space="preserve">
<g>
	<path fill="#D4E6F5" d="M127.1,211.8c-6.5,0-12-5.5-12-12c0-6.5,5.5-12,12-12c6.5,0,12,5.5,12,12
		C139,206.3,133.6,211.8,127.1,211.8z"/>
	<path fill="#D4E6F5" d="M131.8,170.3h-9.4c-1.5,0-2.7-1.2-2.7-2.6l-4.7-121.3c-0.1-1.5,1.2-2.8,2.7-2.8h18.8c1.5,0,2.8,1.3,2.7,2.8
		l-4.7,121.3C134.4,169.1,133.2,170.3,131.8,170.3z"/>
	<g>
		<path fill="#BFD9F1" d="M127.1,253.8c-69.6,0-126.2-56.6-126.2-126.2S57.5,1.5,127.1,1.5s126.2,56.6,126.2,126.2
			S196.6,253.8,127.1,253.8z M127.1,16.7c-61.2,0-111,49.8-111,111c0,61.2,49.8,111,111,111s111-49.8,111-111
			C238,66.5,188.2,16.7,127.1,16.7z"/>
	</g>
</g>
</svg>
