<?xml version="1.0" encoding="utf-8"?>
<!-- Generator: Adobe Illustrator 18.1.1, SVG Export Plug-In . SVG Version: 6.00 Build 0)  -->
<!DOCTYPE svg PUBLIC "-//W3C//DTD SVG 1.1//EN" "http://www.w3.org/Graphics/SVG/1.1/DTD/svg11.dtd">
<svg version="1.1" id="Layer_1" xmlns="http://www.w3.org/2000/svg" xmlns:xlink="http://www.w3.org/1999/xlink" x="0px" y="0px"
	 viewBox="0 0 300 300" enable-background="new 0 0 300 300" xml:space="preserve">
<g>
	<g>
		<path fill="#BFD9F1" d="M150.3,292.1c-78.7,0-142.5-64-142.5-142.5S71.8,6.9,150.3,6.9S293,70.9,293,149.6S229,292.1,150.3,292.1z
			 M150.3,23C80.6,23,23.9,79.8,23.9,149.6S80.6,276,150.3,276s126.4-56.7,126.4-126.4S220,23,150.3,23z"/>
	</g>
	<g>
		<path fill="#BFD9F1" d="M151.6,248c-11.4,0-20.5-9.4-20.5-20.8c0-11.4,9.1-20.8,20.5-20.8s20.5,9.4,20.5,20.8
			C172.1,238.6,163,248,151.6,248z M166.4,192.2h-29.6l-1.6-140.6H168L166.4,192.2z"/>
	</g>
</g>
</svg>
