<?xml version="1.0" encoding="utf-8"?>
<!-- Generator: Adobe Illustrator 18.1.1, SVG Export Plug-In . SVG Version: 6.00 Build 0)  -->
<!DOCTYPE svg PUBLIC "-//W3C//DTD SVG 1.1//EN" "http://www.w3.org/Graphics/SVG/1.1/DTD/svg11.dtd">
<svg version="1.1" id="Layer_1" xmlns="http://www.w3.org/2000/svg" xmlns:xlink="http://www.w3.org/1999/xlink" x="0px" y="0px"
	 viewBox="0 0 300 300" enable-background="new 0 0 300 300" xml:space="preserve">
<g>
	<g>
		<path fill="#1770C4" d="M116.9,93.2c-2.7,0-4.9,2.2-4.9,4.9v131.8c0,2.7,2.2,4.9,4.9,4.9h53.5c2.7,0,6.3-1.4,8.1-3.6l35-35.5
			c1.8-1.8,3.6-5.9,3.6-8.1v-90c0-2.7-2.2-4.9-4.9-4.9h-95.4v0.5H116.9z M198.8,160.7c0,2.7-2.2,4.9-4.9,4.9h-59.4
			c-2.7,0-4.9-2.2-4.9-4.9v-3.2c0-2.7,2.2-4.9,4.9-4.9h59.4c2.7,0,4.9,2.2,4.9,4.9V160.7z M198.8,134.2c0,2.7-2.2,4.9-4.9,4.9h-59.4
			c-2.7,0-4.9-2.2-4.9-4.9V131c0-2.7,2.2-4.9,4.9-4.9h59.4c2.7,0,4.9,2.2,4.9,4.9V134.2z"/>
	</g>
	<g opacity="0.75">
		<path fill="#1770C4" d="M194.4,75.3c0-2.7-2.2-4.9-4.9-4.9H94.1c-2.7,0-4.9,2.2-4.9,4.9v118.3c0,2.7,2.2,4.9,4.9,4.9h3.2
			c2.7,0,4.9-2.2,4.9-4.9V87.8c0-2.7,2.2-4.9,4.9-4.9h82.7c2.7,0,4.9-2.2,4.9-4.9v-2.7H194.4z"/>
	</g>
</g>
<g opacity="0.5">
	<path fill="#1770C4" d="M147.5,296.1C66.1,296.1,0,229.9,0,148.5S66.1,1,147.5,1s147.5,66.1,147.5,147.5S228.9,296.1,147.5,296.1z
		 M147.5,14.5c-73.8,0-134,59.9-134,134s60.2,134,134,134s134-59.9,134-134S221.8,14.5,147.5,14.5z"/>
</g>
</svg>
