<?xml version="1.0" encoding="utf-8"?>
<!-- Generator: Adobe Illustrator 17.1.0, SVG Export Plug-In . SVG Version: 6.00 Build 0)  -->
<!DOCTYPE svg PUBLIC "-//W3C//DTD SVG 1.1//EN" "http://www.w3.org/Graphics/SVG/1.1/DTD/svg11.dtd">
<svg version="1.1" id="Layer_1" xmlns="http://www.w3.org/2000/svg" xmlns:xlink="http://www.w3.org/1999/xlink" x="0px" y="0px"
	 viewBox="0 0 64 64" enable-background="new 0 0 64 64" xml:space="preserve">
<g>
	<g>
		<path d="M31.3,26.8l-7,7l-13,13l0,0l-5.8,5.8l-0.2,0.2l-3.9,9.7c0,0.4,0,0.6,0.2,0.8c0.2,0.2,0.4,0.2,0.6,0.2c0,0,0.2,0,0.4,0
			l9.7-3.9c0,0,0.2,0,0.2-0.2l19-19l0,0l6.8-6.8l17.3-17.3l-7-7L31.3,26.8z M62.8,5.8l-3.7-3.7c-1-1-2.3-1-3.3,0L51.9,6l7,7l3.9-3.9
			C63.7,8.2,63.7,6.8,62.8,5.8z"/>
	</g>
</g>
</svg>
