<?xml version="1.0" encoding="utf-8"?>
<!-- Generator: Adobe Illustrator 17.1.0, SVG Export Plug-In . SVG Version: 6.00 Build 0)  -->
<!DOCTYPE svg PUBLIC "-//W3C//DTD SVG 1.1//EN" "http://www.w3.org/Graphics/SVG/1.1/DTD/svg11.dtd">
<svg version="1.1" id="Layer_1" xmlns="http://www.w3.org/2000/svg" xmlns:xlink="http://www.w3.org/1999/xlink" x="0px" y="0px"
	 viewBox="0 0 64 64" enable-background="new 0 0 64 64" xml:space="preserve">
<g>
	<g>
		<path d="M38.2,4.9c1.1,0,2.1,0.1,3.2,0.3c1.4,0.3,2.7,0.7,4,1.2c1.2,0.5,2,1.1,2.9,1.8c0.7,0.7,1.2,1.5,1.5,2.3
			c0.9,2.7,1,6.7,0.3,11.7c-0.8,5.2-2.4,10.7-5,15.9c-2.6,5.2-5.8,9.9-9.5,13.7c-3.6,3.7-6.8,6-9.4,7h-0.1c-0.6,0.3-1.2,0.4-1.7,0.4
			c-0.3,0-0.6,0-1-0.1c-1.2-0.2-2.2-0.6-3.2-1.2c-1.2-0.7-2.3-1.5-3.3-2.4c-1.1-1-1.9-1.9-2.7-3.1c-0.3-0.4-0.4-0.6-0.5-0.8
			c0.1-0.1,0.3-0.3,0.6-0.6c1.2-1.1,3.1-2.9,5.6-5.3c1.3-1.2,2.4-2.3,3.5-3.2c0.4-0.3,0.6-0.5,0.8-0.6c0.1,0,0.4,0.1,0.7,0.3
			l3.5,1.7l2.7,1.4l1.9-2.3c2.1-2.5,3.9-5.2,5.3-8.1s2.5-6,3.2-9.2l0.6-2.9l-2.7-1.4l-3.5-1.7l0,0l0,0c-0.4-0.2-0.6-0.4-0.7-0.4
			c-0.1-0.2,0-0.5,0-0.6v-0.1v-0.1c0.1-1,0.3-2.5,0.5-4.7c0.4-3.6,0.6-6.2,0.8-7.8c0-0.4,0.1-0.6,0.1-0.7c0,0,0-0.1,0-0.2
			c0.1-0.1,0.4-0.2,0.9-0.2C37.6,4.9,37.9,4.9,38.2,4.9 M38.2,1c-0.4,0-0.8,0-1.1,0c-0.9,0-1.5,0.2-2,0.3c-0.6,0.2-1.1,0.5-1.4,0.8
			c-0.4,0.4-0.7,0.8-0.8,1.2c-0.2,0.5-0.3,0.9-0.3,1.2c-0.1,0.3-0.1,0.7-0.1,1.1c-0.1,1.6-0.4,4.2-0.8,7.7c-0.2,2.1-0.4,3.8-0.5,4.7
			c-0.2,1.1-0.1,2.1,0.4,3c0.4,0.9,1.3,1.6,2.4,2.1l3.5,1.7C37,27.5,36,30.4,34.8,33s-2.9,5-4.8,7.4l-3.5-1.7
			c-0.9-0.5-1.7-0.7-2.5-0.7c-0.4,0-0.8,0.1-1.2,0.2c-0.6,0.2-1.4,0.7-2.1,1.5c-1,1-2.1,2-3.5,3.2c-2.6,2.5-4.5,4.3-5.6,5.3
			s-1.7,2-1.8,3s0.3,2.1,1.2,3.4c1,1.4,2,2.6,3.3,3.7c1.3,1.2,2.6,2.1,4.1,2.9s3,1.4,4.6,1.5c0.4,0.4,1,0.4,1.5,0.4
			c1.1,0,2-0.2,3.1-0.5h0.1c3.3-1.2,7-3.8,10.9-7.9c4.1-4.1,7.5-9,10.2-14.6c2.8-5.7,4.6-11.3,5.3-17.1c0.8-5.7,0.7-10.2-0.5-13.5
			c-0.5-1.5-1.3-2.8-2.5-3.9c-1.2-1.2-2.5-2-4.1-2.6c-1.5-0.7-3.1-1.1-4.7-1.5C40.8,1.1,39.5,1,38.2,1L38.2,1z"/>
	</g>
</g>
</svg>
