<?xml version="1.0" encoding="utf-8"?>
<!-- Generator: Adobe Illustrator 17.1.0, SVG Export Plug-In . SVG Version: 6.00 Build 0)  -->
<!DOCTYPE svg PUBLIC "-//W3C//DTD SVG 1.1//EN" "http://www.w3.org/Graphics/SVG/1.1/DTD/svg11.dtd">
<svg version="1.1" id="Layer_1" xmlns="http://www.w3.org/2000/svg" xmlns:xlink="http://www.w3.org/1999/xlink" x="0px" y="0px"
	 viewBox="0 0 64 64" enable-background="new 0 0 64 64" xml:space="preserve">
<g>
	<path d="M33.3,3.2c3.1,0,5.9,0.5,8.6,1.6c2.7,1.1,4.9,2.5,6.7,4.2c1.8,1.8,3.2,3.8,4.2,6.1c1,2.3,1.5,4.7,1.5,7.1
		c0,4.3-0.7,8.2-2.2,11.6c-1.5,3.4-3.6,6.1-6.3,8.1s-5.8,3-9.3,3c-1.8,0-3.4-0.4-4.9-1.2c-1.5-0.8-2.6-1.7-3.2-2.9
		c-1.3,5.1-2,8.1-2.3,9.1c-0.4,1.6-1.1,3.2-2.1,5c-1,1.8-1.8,3.1-2.4,3.9c-0.6,0.8-1.1,1.4-1.4,1.8c-0.2,0.2-0.3,0.2-0.5,0.2
		c-0.2,0-0.3-0.2-0.3-0.3c0,0,0-0.3-0.1-0.8c-0.1-0.5-0.1-1-0.2-1.6c-0.1-0.6-0.1-1.3-0.1-2.2c0-0.9-0.1-1.7,0-2.6
		c0-0.8,0.1-1.7,0.2-2.7c0.1-1,0.2-1.9,0.5-2.8l4.2-18c-0.7-1.4-1-3.2-1-5.3c0-2.5,0.6-4.5,1.8-6.1c1.2-1.6,2.7-2.4,4.5-2.4
		c1.4,0,2.5,0.5,3.3,1.4c0.8,0.9,1.2,2.1,1.2,3.6c0,0.9-0.2,2-0.5,3.2c-0.3,1.3-0.8,2.8-1.3,4.5c-0.5,1.7-0.9,3-1.2,4
		c-0.4,1.7-0.1,3.2,1,4.5s2.5,1.9,4.3,1.9c2,0,3.9-0.8,5.5-2.4c1.6-1.6,2.8-3.7,3.7-6.4s1.3-5.6,1.3-8.8c0-3.7-1.2-6.8-3.6-9.2
		s-5.8-3.5-10.1-3.5c-2.4,0-4.7,0.4-6.8,1.3c-2.1,0.9-3.8,2-5.2,3.5c-1.4,1.5-2.5,3.1-3.2,5c-0.8,1.9-1.2,3.9-1.2,6
		c0,2.6,0.7,4.8,2.2,6.6c0.3,0.4,0.5,0.7,0.5,0.9c0.1,0.2,0,0.5-0.1,0.9c-0.1,0.3-0.3,1.2-0.7,2.6c-0.1,0.4-0.3,0.7-0.6,0.9
		c-0.3,0.2-0.7,0.2-1.1,0c-2.2-0.9-3.9-2.5-5-4.8s-1.7-4.9-1.7-7.8c0-1.9,0.3-3.8,0.9-5.8c0.6-1.9,1.6-3.8,2.9-5.6
		c1.3-1.8,2.8-3.4,4.7-4.8c1.8-1.4,4-2.5,6.7-3.3C27.5,3.6,30.3,3.2,33.3,3.2z"/>
</g>
</svg>
