<?xml version="1.0" encoding="utf-8"?>
<!-- Generator: Adobe Illustrator 16.0.0, SVG Export Plug-In . SVG Version: 6.00 Build 0)  -->
<!DOCTYPE svg PUBLIC "-//W3C//DTD SVG 1.1//EN" "http://www.w3.org/Graphics/SVG/1.1/DTD/svg11.dtd">
<svg version="1.1" id="Layer_1" xmlns="http://www.w3.org/2000/svg" xmlns:xlink="http://www.w3.org/1999/xlink" x="0px" y="0px"
	 width="16px" height="16px" viewBox="0 0 16 16" enable-background="new 0 0 16 16" xml:space="preserve">
<g>
	<path fill="#FFFFFF" d="M16,1v8c0,0.555-0.444,1-1,1h-1.667V6.667H2.667V10H1c-0.555,0-1-0.444-1-1V1c0-0.556,0.445-1,1-1h14
		C15.555,0,16,0.445,16,1 M4,15.667C4,15.851,4.148,16,4.333,16h7.333C11.851,16,12,15.851,12,15.667V8H4V15.667z M14,3
		C14,2.444,13.555,2,13,2C12.445,2,12,2.444,12,3S12.445,4,13,4C13.555,4,14,3.556,14,3"/>
</g>
</svg>
