<?xml version="1.0" encoding="utf-8"?>
<!-- Generator: Adobe Illustrator 17.1.0, SVG Export Plug-In . SVG Version: 6.00 Build 0)  -->
<!DOCTYPE svg PUBLIC "-//W3C//DTD SVG 1.1//EN" "http://www.w3.org/Graphics/SVG/1.1/DTD/svg11.dtd">
<svg version="1.1" id="Layer_1" xmlns="http://www.w3.org/2000/svg" xmlns:xlink="http://www.w3.org/1999/xlink" x="0px" y="0px"
	 viewBox="0 0 64 64" enable-background="new 0 0 64 64" xml:space="preserve">
<path d="M32.1,48.3c-2,0-3.6-1.6-3.6-3.7c0-2,1.6-3.7,3.6-3.7c2,0,3.6,1.6,3.6,3.7C35.8,46.6,34.1,48.3,32.1,48.3z M34.8,35.5v0.9
	h-5.4v-1.8c0-5.5,7.2-5.5,7.2-9.1c0-1.8-1.8-3.7-4.5-3.7c-2.7,0-5.4,2.7-5.4,2.7l-3.6-3.7c0,0,3.6-4.6,9-4.6c5.5,0,10,3.7,10,9.1
	C42.1,32.7,34.8,32.7,34.8,35.5z"/>
</svg>
