<?xml version="1.0" encoding="utf-8"?>
<!-- Generator: Adobe Illustrator 17.1.0, SVG Export Plug-In . SVG Version: 6.00 Build 0)  -->
<!DOCTYPE svg PUBLIC "-//W3C//DTD SVG 1.1//EN" "http://www.w3.org/Graphics/SVG/1.1/DTD/svg11.dtd">
<svg version="1.1" id="Layer_1" xmlns="http://www.w3.org/2000/svg" xmlns:xlink="http://www.w3.org/1999/xlink" x="0px" y="0px"
	 viewBox="0 0 64 64" enable-background="new 0 0 64 64" xml:space="preserve">
<g>
	<path d="M62.6,26.5c0.4-0.2,0.4-0.8,0.4-1.4c-0.2-0.6-0.8-0.8-1.2-0.8h-20L33.1,1.8C32.9,1.4,32.6,1,32,1c-0.6,0-1,0.4-1.2,0.8
		l-8.7,22.5H2.3c-0.6,0-1,0.2-1.2,0.8c-0.2,0.6,0,1.2,0.2,1.4l15.1,14.9l-3.9,20c0,0.6,0.2,1,0.6,1.4c0.4,0.2,1,0.2,1.4,0L32,51.5
		l17.5,11.3C49.6,63,50,63,50.2,63c0.2,0,0.6,0,0.8-0.2c0.4-0.2,0.6-0.8,0.6-1.4l-3.9-20L62.6,26.5z"/>
</g>
</svg>
