<?xml version="1.0" encoding="utf-8"?>
<!-- Generator: Adobe Illustrator 17.1.0, SVG Export Plug-In . SVG Version: 6.00 Build 0)  -->
<!DOCTYPE svg PUBLIC "-//W3C//DTD SVG 1.1//EN" "http://www.w3.org/Graphics/SVG/1.1/DTD/svg11.dtd">
<svg version="1.1" id="Layer_1" xmlns="http://www.w3.org/2000/svg" xmlns:xlink="http://www.w3.org/1999/xlink" x="0px" y="0px"
	 viewBox="0 0 64 64" enable-background="new 0 0 64 64" xml:space="preserve">
<g>
	<path d="M58.9,37.4c-0.4,0.6-0.5,1-0.6,1.3c-0.1,0.4-0.1,1,0,2.1c0.1,2.2,0,4.1-0.5,5.9c-0.3,0.8-0.5,1.4-0.9,2.1
		c-0.4,0.6-0.8,1.2-1,1.5s-0.6,0.8-1.2,1.4c-0.6,0.6-1,1.3-1.4,1.8c-0.1,0.3-0.4,0.6-0.6,1.4c-0.3,0.6-0.5,1.2-0.6,1.5
		S51.4,57.3,51,58c-0.4,0.6-1,1.3-1.7,1.8c-0.6,0.5-1.5,1-2.6,1.5c-2.3,1.2-5.3,1.7-8.6,1.7h-0.4c-5.5,0-10.7-1.4-15.7-4.4
		C20.2,57.5,14.8,57,6,57H5.9c-1.5,0-2.7-1.3-2.6-2.8v-0.8C3.4,52.1,4.5,51,5.9,51l0,0c1.5,0,3.3,0,5.1,0s3.6,0.1,5.3,0.3
		c1.7,0.1,3.2,0.4,4.9,0.6c1.5,0.4,2.8,0.9,3.9,1.4c4,2.3,8.2,3.5,12.7,3.5c2.6,0.1,4.6-0.3,6.3-1c0.9-0.4,1.5-0.8,1.8-1.3
		c0.3-0.4,0.6-1,0.9-1.8c0.4-1,0.8-1.9,1.3-2.7c0.4-0.6,1-1.4,1.9-2.3c0.1-0.1,0.4-0.4,0.6-0.6c0.3-0.4,0.5-0.5,0.6-0.6
		c0.1-0.1,0.3-0.4,0.4-0.5c0.1-0.3,0.3-0.5,0.3-0.6c0.3-0.9,0.4-2.2,0.3-3.6c-0.1-1.5-0.1-2.8,0.1-4c0.3-1.2,0.6-2.2,1-2.8
		c0.8-1.3,1-2.4,1-3.3c0-0.4,0-0.6-0.1-0.9c0-0.3-0.1-0.5-0.4-0.9c-0.3-0.4-0.6-0.6-1.2-0.8c-0.5-0.1-1.3-0.3-2.2-0.3H44
		c-2.7,0-4.9-0.6-6.7-2.1c-1.8-1.4-2.8-3.2-3-5.4c-0.3-2.6,0.5-5.4,2.1-8.5c0.9-1.7,1.3-2.7,1.3-3.3s-0.4-1.2-0.9-1.5
		c-0.9-0.5-1.9-0.5-3,0.1c-0.5,0.3-1.4,1.3-3.1,3c-1.5,1.7-3.2,3.7-5.1,6h0c-0.9,1-1.5,1.9-2.1,2.4s-1.2,1.4-2.1,2.3
		c-0.9,1-1.7,1.8-2.2,2.3c-0.6,0.5-1.4,1.3-2.3,2.1c-0.9,0.8-1.8,1.4-2.6,1.8c-0.9,0.5-1.8,0.9-2.8,1.4s-2.1,0.8-3.2,1l0,0
		c-1.8,0.4-3.5-1-3.5-2.8v-0.1c0-1.3,0.9-2.6,2.2-2.8c0.3-0.1,0.5-0.1,0.8-0.3c0.9-0.3,1.8-0.6,2.6-0.9c0.8-0.3,1.5-0.9,2.4-1.5
		c0.9-0.6,1.5-1.3,2.2-1.8c0.5-0.5,1.3-1.2,2.1-2.2c0.9-0.9,1.5-1.7,1.9-2.3c0.5-0.5,1.2-1.4,2.1-2.4l0.4-0.5
		c4.8-5.9,8.1-9.4,9.9-10.3c1.4-0.8,2.8-1.2,4.4-1.3c1.5,0,3,0.4,4.4,1c1.2,0.6,2.2,1.5,2.8,2.6c0.6,1.2,1,2.3,1.2,3.7
		c0,0.8,0,1.5-0.3,2.4c-0.3,0.9-0.5,1.5-0.6,2.1c-0.3,0.5-0.5,1.2-1,2.1c-1,2.1-1.5,3.7-1.4,5.3c0,0.8,0.5,1.3,1.2,1.7
		c0.8,0.4,1.5,0.6,2.4,0.6h6.6c3.1,0,5.4,0.8,7.2,2.3c1.8,1.5,2.6,3.6,2.6,6.4C60.7,33.2,60,35.2,58.9,37.4z"/>
</g>
</svg>
