<?xml version="1.0" encoding="utf-8"?>
<!-- Generator: Adobe Illustrator 17.1.0, SVG Export Plug-In . SVG Version: 6.00 Build 0)  -->
<!DOCTYPE svg PUBLIC "-//W3C//DTD SVG 1.1//EN" "http://www.w3.org/Graphics/SVG/1.1/DTD/svg11.dtd">
<svg version="1.1" id="Layer_1" xmlns="http://www.w3.org/2000/svg" xmlns:xlink="http://www.w3.org/1999/xlink" x="0px" y="0px"
	 viewBox="0 0 64 64" enable-background="new 0 0 64 64" xml:space="preserve">
<g>
	<path d="M62.9,12.8c-1.7,2.6-3.8,4.7-6.3,6.6v1.6c0,2.8-0.3,5.7-1.1,8.5c-0.8,2.9-1.7,5.6-3.1,8.3c-1.3,2.7-3,5.2-5.2,7.5
		s-4.4,4.4-7.1,6.1c-2.6,1.7-5.6,3.1-9,4.1s-7,1.5-10.7,1.5c-7.6,0-14.2-1.7-19.4-5.2c1.1,0.3,2,0.4,3.1,0.4c2.8,0,5.6-0.5,8.3-1.6
		c2.7-1.1,5.2-2.6,7.4-4.4c-2.7,0-5.2-0.9-7.3-2.5S8.8,40,8,37.4c0.9,0.2,1.6,0.2,2.4,0.2c1.2,0,2.3-0.1,3.4-0.4
		c-2.9-0.5-5.4-2-7.3-4.4s-3-5.1-3-8.1v-0.1c1.8,1,3.8,1.5,5.7,1.6c-1.7-1.3-3-2.8-4.1-4.6c-1-1.8-1.5-3.9-1.5-6
		c0-2,0.5-4.1,1.7-6.1c3.2,3.9,7,7,11.5,9.2s9.3,3.5,14.6,3.9c-0.2-0.8-0.3-1.7-0.3-2.9c0-3.5,1.2-6.4,3.7-8.9
		c2.5-2.5,5.5-3.7,8.9-3.7c3.7,0,6.8,1.3,9.3,4c2.9-0.5,5.6-1.6,8.1-3.1c-1,3.1-2.8,5.4-5.6,7.1C58.1,14.5,60.6,13.8,62.9,12.8z"/>
</g>
</svg>
