<?xml version="1.0" encoding="utf-8"?>
<!-- Generator: Adobe Illustrator 17.1.0, SVG Export Plug-In . SVG Version: 6.00 Build 0)  -->
<!DOCTYPE svg PUBLIC "-//W3C//DTD SVG 1.1//EN" "http://www.w3.org/Graphics/SVG/1.1/DTD/svg11.dtd">
<svg version="1.1" id="Layer_1" xmlns="http://www.w3.org/2000/svg" xmlns:xlink="http://www.w3.org/1999/xlink" x="0px" y="0px"
	 viewBox="0 0 64 64" enable-background="new 0 0 64 64" xml:space="preserve">
<g>
	<path d="M32,5.6c0.8,0,1.4,0.4,1.6,1.1l0,0l0,0l24.5,49.1c0.3,0.6,0.3,1.4,0,1.8c-0.4,0.6-1.1,1-1.7,1H7.5c-0.7,0-1.4-0.4-1.6-1
		c-0.3-0.5-0.4-1.3-0.1-1.9l24.5-49C30.5,6,31.2,5.6,32,5.6 M32,1c-2.4,0-4.6,1.4-5.8,3.6L1.7,53.7c-1,2-0.9,4.4,0.3,6.2
		C3.3,61.8,5.3,63,7.5,63h49.1c2.2,0,4.3-1.2,5.5-3.1c1.2-1.8,1.3-4.3,0.2-6.2L37.7,4.6C36.6,2.4,34.4,1,32,1L32,1z"/>
</g>
</svg>
